<svg width="170" height="132" viewBox="0 0 170 132" fill="none" xmlns="http://www.w3.org/2000/svg">
<g clip-path="url(#clip0_4453_774)">
<mask id="mask0_4453_774" style="mask-type:luminance" maskUnits="userSpaceOnUse" x="-1" y="0" width="171" height="132">
<path d="M169.239 131.312L0.00866699 131.323L-1.50126e-06 0.0114464L169.23 0.000274658L169.239 131.312Z" fill="white"/>
</mask>
<g mask="url(#mask0_4453_774)">
<path d="M6.89633 78.7586C6.60447 77.718 6.46618 76.6612 6.47635 75.605C6.52214 71.2837 8.45701 67.8141 11.9585 65.7066C12.9412 63.0993 14.8556 59.7164 18.5926 56.4966C18.9099 55.619 19.2733 54.0781 18.8329 53.1393C18.0496 51.4811 16.3189 45.9402 18.5763 42.394C19.6359 40.7306 21.3713 39.8121 23.4702 39.812C24.407 39.8119 25.3951 39.9904 26.4906 40.3526C32.1886 42.2452 33.2743 48.9903 33.3617 53.2506C34.0322 53.1638 34.7695 53.0566 35.5271 52.9137C35.6653 51.9239 35.8443 50.9391 36.0644 49.9646C34.2623 48.1687 32.7264 46.1279 31.4925 43.8881C27.7754 37.1483 27.1145 29.2705 29.6327 21.7139C32.1253 14.2339 37.4388 7.95264 44.6005 4.03367C49.4022 1.4057 54.7775 0.0124386 60.1374 0.0120852C70.8217 0.0113808 80.4977 5.51606 85.3821 14.3783C86.616 16.6181 87.522 19.0008 88.0748 21.4805C96.1481 24.3627 102.748 29.8982 106.782 37.2197C110.735 44.388 111.923 52.7964 110.157 61.0111C110.209 61.103 110.255 61.1745 110.291 61.2254C110.531 61.2152 111.022 61.154 111.872 60.8478C115.333 59.6179 118.906 58.0462 122.51 56.1581C122.443 54.704 122.556 52.9947 123.165 51.5865C123.703 50.3517 124.403 49.3108 125.264 48.4842C125.719 46.3565 127.122 43.7288 130.792 41.3713C131.063 41.1315 131.934 40.2487 131.718 39.0191C131.662 38.7946 131.371 38.1313 131.155 37.6466C130.121 35.2996 128.703 32.0853 129.9 29.2586C130.315 28.2841 131.216 26.9779 133.172 26.2532C133.99 25.947 134.846 25.7939 135.711 25.7938C137.866 25.7937 139.991 26.763 141.69 28.5231C143.39 30.2833 144.558 32.6965 145.095 35.4517C148.08 34.074 151.704 32.1757 154.663 29.9458C156.721 28.3997 158.968 27.5832 161.175 27.583C163.585 27.5829 165.843 28.5777 167.374 30.3123C168.808 31.9399 169.468 34.0777 169.192 36.1798C168.465 41.7055 161.821 44.0428 157.623 44.9768C157.684 45.2676 157.751 45.5737 157.812 45.8952C157.981 46.6044 158.074 47.2166 158.119 47.63C158.693 51.3137 158.739 54.6761 158.248 57.6252C158.187 58.1457 158.089 58.6762 157.962 59.2069L157.537 60.7988L157.44 60.8294C155.827 65.4879 152.52 68.6464 147.806 70.009C145.558 70.6573 143.449 70.9889 141.55 70.989C140.198 70.9891 138.919 70.8263 137.736 70.4942C136.476 71.0097 135.217 71.2703 133.978 71.2704C132.361 71.2705 130.799 70.8163 129.381 69.949C125.234 72.1024 121.093 73.9143 117.054 75.3478C114.694 76.1849 112.391 76.6134 110.205 76.6136C108.019 76.6137 105.746 76.1448 103.78 75.2468C101.952 77.7777 99.8328 80.0838 97.4321 82.1407C98.4307 83.314 99.2186 84.5997 99.7819 85.9823C101.677 90.5998 101.006 95.5539 97.7865 100.723C98.4931 104.044 97.4899 106.963 94.9818 108.973L95.2227 109.978C98.6271 112.238 100.424 117.05 99.4774 121.892C98.5866 126.443 95.0443 131.311 87.7703 131.316L87.7548 131.316C83.6083 131.317 80.1373 129.944 77.4287 127.24C72.9083 122.72 72.0013 115.745 71.8221 112.996C71.0798 112.102 70.4548 111.138 69.9482 110.128C67.3323 111.23 64.4399 111.807 61.4297 111.808C60.626 111.808 59.8171 111.766 59.0134 111.69C57.6466 112.66 56.0391 113.18 54.3447 113.196C55.0103 116.425 54.5756 121.053 49.8864 124.078C47.89 125.37 45.2843 126.079 42.5505 126.08C38.4448 126.08 34.6923 124.575 32.2502 121.958C30.1408 119.697 29.1577 116.759 29.3981 113.468C30.017 105.08 35.8118 100.176 38.2689 98.456C40.4954 91.3538 46.3774 89.3585 49.3108 89.312L50.4473 89.2971L55.4491 93.7916C56.0584 93.8681 56.6727 94.0162 57.2819 94.2303C58.4594 94.6488 59.5089 95.3677 60.369 96.3423C60.6659 96.3732 61.014 96.4034 61.4031 96.4034C62.3655 96.4033 63.7324 96.2403 64.8074 95.4643C65.7647 94.7754 66.553 93.5661 67.1365 91.8977C58.8585 91.097 51.215 87.6638 45.481 82.1491C45.1841 82.3731 44.877 82.6083 44.5698 82.8429C42.9676 85.1799 40.6998 86.2109 39.4764 86.619C38.3553 87.435 37.2495 88.2264 36.1796 88.9814C19.9521 100.427 13.896 101.968 10.1128 101.968C9.35513 101.968 8.62821 101.897 7.88078 101.754C4.97807 101.193 2.62306 99.499 1.24067 96.9944C-2.01561 91.0807 1.6904 85.203 6.87586 78.7635L6.89633 78.7586ZM84.3015 91.2337C84.0094 91.0954 83.6618 90.9479 83.2573 90.7949C83.2061 91.1109 83.1549 91.4275 83.0987 91.7386C83.4828 91.5399 83.8873 91.3713 84.2966 91.2337L84.3015 91.2337Z" fill="white"/>
<path d="M55.1887 97.4245L49.3728 92.2005C49.3728 92.2005 42.7023 92.2978 40.7933 100.278C40.7933 100.278 32.9763 104.651 32.3114 113.677C31.6465 122.703 42.8939 125.166 48.3253 121.651C53.7566 118.14 50.9918 112.125 50.9918 112.125L55.1836 97.4245L55.1887 97.4245Z" fill="white"/>
<path d="M42.5762 123.947C44.8339 123.947 47.0403 123.396 48.7449 122.294C53.9715 118.915 52.292 113.385 51.8057 112.088L55.9258 97.639C56.0076 97.3581 55.9206 97.0569 55.7004 96.8631L49.8845 91.6391C49.7412 91.5113 49.562 91.4397 49.3572 91.4397C49.2856 91.4397 42.2465 91.6396 40.1225 99.788C38.6328 100.712 32.1622 105.192 31.5434 113.621C31.2723 117.32 32.8595 120.386 36.0182 122.248C37.938 123.381 40.2828 123.947 42.5711 123.952L42.5762 123.947ZM54.3183 97.6749L50.2545 111.915C50.2032 112.089 50.2186 112.277 50.2955 112.446C50.3979 112.665 52.707 117.905 47.9052 121.007C44.9669 122.906 40.0881 122.871 36.7963 120.927C34.9379 119.83 32.7774 117.687 33.069 113.728C33.6981 105.238 41.0901 100.982 41.1618 100.941C41.3461 100.834 41.4843 100.66 41.5303 100.451C43.0606 94.0474 47.8727 93.1187 49.0911 92.9859L54.308 97.6749L54.3183 97.6749Z" fill="black"/>
<path d="M43.4971 109.507C45.5294 108.992 48.6727 108.904 50.992 112.124L43.4971 109.507Z" fill="white"/>
<path d="M50.9971 112.894C51.1506 112.894 51.3093 112.849 51.4424 112.752C51.7854 112.507 51.8673 112.027 51.6164 111.685C49.6402 108.945 46.6862 107.91 43.3075 108.772C42.898 108.88 42.6472 109.293 42.7547 109.701C42.8623 110.109 43.2769 110.359 43.6916 110.252C45.6215 109.762 48.345 109.762 50.3724 112.578C50.521 112.787 50.7564 112.894 50.9971 112.894Z" fill="black"/>
<path d="M49.1835 94.1953C49.1835 94.1953 43.7673 94.7265 42.9947 101.395L49.1835 94.1953Z" fill="white"/>
<path d="M42.9998 102.165C43.3837 102.165 43.7165 101.88 43.7625 101.487C44.4481 95.5429 49.0709 94.9808 49.2654 94.9604C49.6851 94.9148 49.9923 94.5419 49.9462 94.1184C49.9052 93.6999 49.5263 93.3945 49.1117 93.4353C49.0503 93.4402 43.0709 94.1091 42.237 101.308C42.1909 101.727 42.493 102.109 42.9128 102.155C42.9435 102.155 42.9742 102.155 42.9998 102.155L42.9998 102.165Z" fill="black"/>
<path d="M41.5558 102.461C41.5558 102.461 31.6401 108.656 35.1679 118.197L41.5558 102.461Z" fill="white"/>
<path d="M35.1733 118.963C35.2603 118.963 35.3524 118.947 35.4394 118.916C35.8387 118.769 36.0435 118.33 35.895 117.932C32.6232 109.08 41.8734 103.171 41.9707 103.11C42.329 102.885 42.4365 102.41 42.2112 102.053C41.9859 101.696 41.515 101.589 41.1515 101.813C41.0491 101.88 30.7546 108.453 34.4514 118.463C34.564 118.774 34.8609 118.963 35.1733 118.963Z" fill="black"/>
<path d="M56.3354 96.95C51.6972 95.3072 48.3751 99.9862 48.4061 104.619C48.4371 109.252 53.9508 111.905 57.4779 109.231C61.1995 106.414 60.6255 98.4651 56.3354 96.9451L56.3354 96.95Z" fill="white"/>
<path d="M54.263 111.068C55.5838 111.068 56.8739 110.655 57.9437 109.848C60.3497 108.022 61.0048 104.511 60.5899 101.838C60.1545 99.0622 58.6596 96.9704 56.5913 96.236C54.651 95.5473 52.7774 95.7869 51.17 96.9302C49.0046 98.466 47.6175 101.486 47.6381 104.635C47.6537 107.074 49.0667 109.272 51.3296 110.379C52.2767 110.843 53.2801 111.073 54.2681 111.073L54.263 111.068ZM54.4618 97.3787C54.9839 97.3786 55.5215 97.4755 56.0744 97.6749C57.6051 98.2155 58.7263 99.8578 59.0695 102.073C59.4843 104.746 58.6602 107.379 57.0119 108.629C55.6144 109.69 53.6947 109.834 52.0053 109.002C50.2442 108.139 49.1843 106.502 49.174 104.619C49.1584 101.997 50.3152 99.4097 52.0557 98.1751C52.8031 97.6442 53.6068 97.3787 54.4618 97.3787Z" fill="black"/>
<path d="M61.4449 108.914C58.5832 108.914 56.474 108.338 56.0389 108.21C56.0389 108.21 51.0986 107.425 52.2911 102.654C53.5553 97.598 58.7822 98.9957 58.7822 98.9957L58.7412 98.9852C58.7873 98.9957 63.231 100.184 66.5277 97.8064C70.0036 95.3007 70.9864 89.7084 71.1954 85.453C71.3286 82.8001 73.5966 80.7643 76.2481 80.8912C78.9102 81.0237 80.9579 83.2791 80.8254 85.9271C80.3597 95.2488 77.4067 101.897 72.0415 105.683C68.4072 108.25 64.4961 108.909 61.4398 108.909L61.4449 108.914Z" fill="#12B4FF"/>
<path d="M61.4449 109.68C65.5506 109.68 69.3696 108.516 72.4873 106.312C78.0513 102.383 81.1173 95.5401 81.5928 85.9684C81.6699 84.4839 81.1579 83.055 80.1544 81.9533C79.1509 80.8509 77.7787 80.2028 76.2894 80.1264C73.2229 79.9791 70.5813 82.3464 70.4278 85.413C70.2233 89.4998 69.3021 94.852 66.0772 97.1793C63.108 99.317 58.9869 98.2513 58.946 98.2408C58.9203 98.2359 58.8999 98.2309 58.8743 98.2253C58.3419 98.1032 56.0432 97.6799 54.0775 98.8331C52.813 99.5726 51.9633 100.797 51.5437 102.461C51.1394 104.073 51.3186 105.466 52.0763 106.609C53.2642 108.4 55.4758 108.879 55.8648 108.951C56.3768 109.098 58.5576 109.675 61.4449 109.675L61.4449 109.68ZM76.0177 81.6523C76.0844 81.6523 76.1511 81.6523 76.2178 81.6523C77.2978 81.7035 78.2957 82.1774 79.0232 82.9736C79.75 83.7748 80.1188 84.8049 80.0676 85.887C79.6125 94.9637 76.7669 101.414 71.6066 105.057C68.7091 107.103 65.2894 108.139 61.45 108.139C58.6855 108.139 56.6429 107.578 56.264 107.466C56.2333 107.456 56.1975 107.45 56.1668 107.445C56.1514 107.445 54.2572 107.114 53.3612 105.752C52.8595 104.987 52.752 104.001 53.0437 102.828C53.3558 101.573 53.9701 100.675 54.866 100.144C56.5041 99.1798 58.5724 99.7154 58.5928 99.7203C58.6133 99.7253 58.6338 99.7309 58.6542 99.7358C59.3965 99.9141 63.6764 100.796 66.9885 98.4137C70.71 95.7296 71.7538 89.8978 71.974 85.4796C72.0813 83.321 73.8781 81.6419 76.0226 81.6418L76.0177 81.6523Z" fill="black"/>
<path d="M110.214 73.7257C107.128 73.7259 104.834 72.7156 103.273 71.6441C96.955 67.3181 96.5499 58.1034 96.5246 57.0677L101.347 56.95L106.164 56.8119C106.236 58.9447 107.106 62.6182 108.74 63.7253C109.579 64.2967 110.962 64.2456 112.85 63.572C124.788 59.3313 134.187 52.4834 134.279 52.412L139.998 60.1517C139.568 60.4681 129.35 67.9129 116.087 72.6285C113.88 73.4144 111.924 73.7256 110.214 73.7257Z" fill="black"/>
<path d="M10.1334 99.0753C9.51394 99.0754 8.96109 99.0143 8.45424 98.9125C6.41672 98.5194 4.76309 97.3412 3.80055 95.5963C0.861686 90.2598 5.64278 84.611 14.3296 74.3604C15.0514 73.5079 15.7988 72.6252 16.5615 71.7221L23.9491 77.9003C23.1813 78.8139 22.4288 79.6966 21.7019 80.559C20.0229 82.5386 18.1698 84.7274 16.5727 86.7225C23.2532 83.0025 33.8651 75.7158 45.3523 66.3629L51.4499 73.8068C51.1223 74.0722 43.3618 80.3792 34.5211 86.6146C20.0084 96.8501 13.8193 99.0702 10.1283 99.0704L10.1334 99.0753Z" fill="black"/>
<path d="M41.9074 72.7514C50.683 88.6697 71.7548 93.9341 88.9651 84.5087C106.181 75.0841 113.019 54.5366 104.243 38.6131C100.142 31.1795 93.3641 26.0674 85.5463 23.6903C85.1262 20.9708 84.2357 18.2973 82.843 15.7667C75.9719 3.3075 59.4772 -0.808918 45.9985 6.56981C32.5198 13.9485 27.166 30.0363 34.037 42.5005C35.4296 45.0261 37.2164 47.2097 39.295 49.026C37.1147 56.8785 37.8063 65.3226 41.9074 72.7563L41.9074 72.7514Z" fill="#12B4FF"/>
<path d="M70.935 89.9436C77.1039 89.9432 83.4467 88.4071 89.3387 85.1822C106.897 75.5687 113.884 54.5163 104.919 38.2509C100.951 31.0519 94.326 25.6899 86.2273 23.1087C85.756 20.4045 84.8444 17.8177 83.5135 15.4096C80.0885 9.19533 74.2515 4.78225 67.0847 2.99183C59.9379 1.20652 52.3153 2.23768 45.6297 5.90153C38.9441 9.56537 33.9787 15.418 31.6601 22.3878C29.3313 29.378 29.9359 36.6538 33.3662 42.868C34.6923 45.2762 36.3972 47.4344 38.4348 49.2812C36.2801 57.4756 37.2687 65.9248 41.2366 73.1237C47.1962 83.9302 58.7203 89.9445 70.935 89.9436ZM60.1224 3.66579C62.3391 3.66564 64.5507 3.93081 66.7162 4.4715C73.4637 6.1599 78.9566 10.3026 82.1724 16.1393C83.4934 18.5322 84.3741 21.1138 84.7886 23.8078C84.8349 24.0986 85.0393 24.3384 85.3209 24.4251C93.2411 26.8329 99.7221 32.001 103.573 38.9857C112.133 54.5113 105.413 74.6299 88.5964 83.8404C71.78 93.0459 51.1384 87.9093 42.5778 72.3842C38.7276 65.4043 37.8261 57.1795 40.0371 49.225C40.1139 48.9393 40.0268 48.6383 39.8016 48.4444C37.7435 46.6485 36.0284 44.521 34.7125 42.1282C31.4921 36.2914 30.9285 29.4493 33.1192 22.8673C35.3149 16.2649 40.0243 10.7133 46.3721 7.23828C50.6876 4.87564 55.4126 3.661 60.1224 3.66069L60.1224 3.66579Z" fill="black"/>
<path d="M131.935 49.2644C131.935 49.2644 127.834 48.1524 125.838 52.7395C123.841 57.3265 128.742 74.2047 139.231 66.3105C149.72 58.4167 149.468 42.314 149.468 42.314L139.808 39.8452L131.935 49.2644Z" fill="white"/>
<path d="M133.994 69.1582C135.606 69.1581 137.511 68.5661 139.692 66.923C150.37 58.8863 150.246 42.9775 150.236 42.304C150.231 41.9571 149.995 41.6612 149.657 41.5744L139.997 39.1055C139.71 39.0341 139.408 39.1311 139.214 39.3556L131.633 48.4228C129.851 48.1576 126.749 48.7037 125.126 52.4336C123.713 55.6787 125.3 64.1229 129.77 67.6278C130.814 68.4492 132.227 69.1532 133.988 69.153L133.994 69.1582ZM148.695 42.9112C148.608 45.8247 147.718 58.9681 138.77 65.7036C135.734 67.9897 133.026 68.2347 130.727 66.4287C126.954 63.4696 125.336 55.8113 126.539 53.0458C128.233 49.1476 131.597 49.9688 131.735 50.0045C132.022 50.081 132.334 49.984 132.523 49.7545L140.084 40.7077L148.69 42.9062L148.695 42.9112Z" fill="black"/>
<path d="M129.866 55.0347C129.866 55.0347 124.204 48.943 132.507 43.7178C132.507 43.7178 135.154 41.7532 134.575 38.4725C134.242 36.5847 130.003 30.5133 134.191 28.967C138.378 27.4208 143.108 32.5074 142.489 40.4159" fill="white"/>
<path d="M129.866 55.8009C130.056 55.8009 130.241 55.7345 130.389 55.5968C130.701 55.311 130.717 54.8264 130.429 54.5151C130.389 54.4743 128.433 52.2907 128.791 49.6171C129.052 47.6884 130.439 45.9229 132.917 44.3666C132.932 44.3564 132.952 44.3462 132.968 44.3309C133.091 44.239 135.989 42.0397 135.333 38.3407C135.236 37.7897 134.923 37.0805 134.524 36.1774C133.756 34.4376 132.707 32.06 133.29 30.6875C133.485 30.2333 133.863 29.9017 134.457 29.6822C135.711 29.2179 137.078 29.4729 138.307 30.3963C140.222 31.8401 142.126 35.2125 141.722 40.3556C141.686 40.7791 142.004 41.1465 142.428 41.1771C142.848 41.2025 143.222 40.8964 143.253 40.4729C143.631 35.6564 142.09 31.3247 139.228 29.1717C137.569 27.9218 135.686 27.5954 133.919 28.2485C132.921 28.616 132.235 29.2385 131.872 30.0906C131.027 32.0703 132.236 34.8 133.111 36.7948C133.439 37.5398 133.751 38.2387 133.812 38.6061C134.279 41.2542 132.303 42.9023 132.062 43.0911C129.19 44.9026 127.578 47.0354 127.261 49.4335C126.81 52.8418 129.191 55.4489 129.293 55.556C129.447 55.7193 129.652 55.8009 129.857 55.8009L129.866 55.8009Z" fill="black"/>
<path d="M140.493 40.5185C140.739 40.4011 149.907 37.1606 156.424 32.262C161.819 28.2003 166.847 31.8174 166.325 35.8125C165.583 41.4557 154.029 42.6656 154.029 42.6656C154.029 42.6656 160.813 63.2629 147.012 67.2385C132.647 71.3828 132.119 59.3259 132.119 59.3259" fill="white"/>
<path d="M141.534 68.8664C143.25 68.8663 145.148 68.5652 147.222 67.9681C150.555 67.0087 153.033 65.0391 154.578 62.1255C158.048 55.5791 155.841 46.2065 155.017 43.2983C157.879 42.8643 166.392 41.1444 167.083 35.9043C167.364 33.7767 166.284 31.6695 164.338 30.5369C161.897 29.1187 158.764 29.5322 155.958 31.6447C152.196 34.4767 146.703 37.3343 140.499 39.6919C140.304 39.7685 140.186 39.8144 140.161 39.8246C139.777 40.0083 139.618 40.4624 139.802 40.8451C139.981 41.2227 140.432 41.3808 140.811 41.2124C140.846 41.197 140.929 41.1664 141.046 41.1205C147.384 38.7119 153.01 35.7828 156.885 32.864C159.179 31.1394 161.676 30.7616 163.565 31.8585C164.979 32.6748 165.762 34.1849 165.563 35.7003C165.02 39.8332 156.993 41.5685 153.947 41.8901C153.717 41.9157 153.507 42.0432 153.384 42.2371C153.261 42.431 153.226 42.6708 153.297 42.8902C153.333 43.0024 156.984 54.3138 153.221 61.4062C151.88 63.937 149.715 65.6515 146.797 66.4936C142.277 67.7949 138.755 67.5809 136.323 65.8463C133.123 63.5658 132.883 59.3208 132.883 59.2799C132.861 58.8565 132.503 58.5299 132.078 58.5504C131.654 58.5708 131.326 58.928 131.346 59.3464C131.357 59.5504 131.608 64.3567 135.417 67.0811C137.07 68.2647 139.118 68.8616 141.534 68.8614L141.534 68.8664Z" fill="black"/>
<path d="M155.294 49.2677C155.294 49.2677 155.309 49.2677 155.314 49.2677C155.74 49.2574 156.072 48.9054 156.062 48.4819C156.062 48.3084 155.924 44.1909 153.164 41.8287C151.648 40.5329 149.667 40.0329 147.276 40.3393C144.41 40.7068 142.982 42.0743 142.291 43.1611C141.323 44.6816 141.103 46.7073 141.707 48.5797C141.836 48.9828 142.27 49.2022 142.675 49.0746C143.079 48.947 143.3 48.5133 143.172 48.1102C142.813 46.9929 142.731 45.3245 143.586 43.9825C144.333 42.8038 145.644 42.0895 147.471 41.8597C149.417 41.6147 150.993 41.9921 152.166 42.9972C154.413 44.9206 154.526 48.487 154.526 48.5228C154.536 48.9411 154.88 49.2677 155.294 49.2677Z" fill="black"/>
<path d="M155.422 54.314C155.806 54.314 156.139 54.0282 156.185 53.6353C156.206 53.4771 156.609 49.6964 154.188 47.2577C152.652 45.7118 150.379 45.0793 147.42 45.3855C144.568 45.6766 143.135 47.0186 142.439 48.085C141.436 49.6259 141.211 51.6975 141.846 53.6311C141.978 54.0342 142.409 54.2536 142.813 54.1209C143.218 53.9882 143.438 53.5596 143.305 53.1566C142.926 51.9984 142.838 50.2789 143.729 48.9166C144.481 47.7685 145.777 47.0898 147.584 46.901C150.046 46.6456 151.905 47.1252 153.093 48.319C154.997 50.2271 154.664 53.4211 154.664 53.4568C154.619 53.8752 154.921 54.2528 155.34 54.3037C155.371 54.3037 155.397 54.3037 155.427 54.3037L155.422 54.314Z" fill="black"/>
<path d="M146.003 63.4377C147.688 63.4376 149.761 62.7843 151.123 60.4525C151.338 60.0851 151.215 59.6208 150.846 59.4065C150.478 59.1923 150.012 59.3148 149.796 59.6821C148.051 62.662 145.071 61.8458 144.606 61.6979C142.85 60.6827 141.953 58.7183 142.317 56.6826C142.732 54.3406 144.677 52.6669 147.513 52.2024C150.436 51.7226 152.571 52.1052 153.682 53.299C155.023 54.7428 154.711 57.0848 154.404 58.3604C154.307 58.7737 154.557 59.1869 154.972 59.2839C155.382 59.3807 155.797 59.1307 155.899 58.7174C156.554 56.0081 156.165 53.7172 154.808 52.2581C153.308 50.6459 150.769 50.1205 147.262 50.6922C143.131 51.3659 141.217 54.0907 140.802 56.4173C140.326 59.0807 141.575 61.7542 143.909 63.0653C143.945 63.0857 143.987 63.1062 144.027 63.1163C144.529 63.2949 145.22 63.4377 146.003 63.4377Z" fill="black"/>
<path d="M62.4349 58.1624C58.4992 58.1627 55.3085 53.3932 55.3081 47.5094C55.3077 41.6257 58.4978 36.8557 62.4335 36.8554C66.3691 36.8552 69.5599 41.6247 69.5603 47.5084C69.5607 53.3922 66.3705 58.1621 62.4349 58.1624Z" fill="white"/>
<path d="M62.435 58.9274C66.7865 58.9271 70.3288 53.8042 70.3284 47.508C70.328 41.2118 66.785 36.0895 62.4335 36.0898C58.0821 36.09 54.5399 41.2129 54.5403 47.5091C54.5407 53.8052 58.0837 58.9277 62.435 58.9274ZM62.4336 37.6204C65.9404 37.6202 68.7922 42.0589 68.7926 47.5081C68.7929 52.9573 65.9417 57.3965 62.4349 57.3967C58.9282 57.397 56.0764 52.9582 56.0761 47.509C56.0757 42.0598 58.9269 37.6206 62.4336 37.6204Z" fill="black"/>
<path d="M61.0262 45.1819L63.1915 42.3705C62.3825 40.498 61.1334 39.294 59.7409 39.2941C57.2938 39.2942 55.3129 42.9731 55.3132 47.509C55.3135 52.0448 57.2949 55.7235 59.742 55.7233C62.189 55.7231 64.17 52.0443 64.1697 47.5084C64.1696 46.6971 64.1081 45.9165 63.9903 45.1817L61.0314 45.1819L61.0262 45.1819Z" fill="black"/>
<path d="M59.737 56.4885C62.6499 56.4883 64.9329 52.5441 64.9325 47.5082C64.9325 46.6817 64.8659 45.8551 64.743 45.0592C64.6815 44.6867 64.3641 44.4112 63.9853 44.4113L62.5826 44.4113L63.8008 42.8296C63.9698 42.6101 64.0056 42.3142 63.898 42.0591C62.9253 39.8091 61.4099 38.5234 59.7409 38.5235C56.8281 38.5237 54.5451 42.4679 54.5454 47.5038C54.5457 52.5397 56.8293 56.4836 59.7421 56.4834L59.737 56.4885ZM63.3096 45.9471C63.3659 46.4624 63.3967 46.9828 63.3968 47.5083C63.3971 51.9677 61.5031 54.9577 59.7369 54.9579C57.9707 54.958 56.0764 51.9631 56.0761 47.5088C56.0758 43.0546 57.9697 40.0594 59.7359 40.0593C60.6625 40.0592 61.5994 40.8756 62.2957 42.2684L60.412 44.7125C60.2328 44.9421 60.2022 45.2534 60.3352 45.5187C60.4633 45.7789 60.7295 45.9473 61.0212 45.9472L63.3045 45.9471L63.3096 45.9471Z" fill="black"/>
<path d="M59.0545 34.8194C59.0545 34.8194 61.4245 32.5692 64.0047 32.7834C67.4244 33.0689 65.4788 29.9004 62.4739 30.9568C59.4689 32.0132 59.0545 34.8194 59.0545 34.8194Z" fill="black"/>
<path d="M59.0546 35.5849C59.2491 35.5849 59.4385 35.5135 59.5818 35.3757C59.6176 35.34 61.7676 33.3602 63.9382 33.5488C65.5611 33.6814 66.1958 33.1354 66.4416 32.6506C66.7129 32.1149 66.5951 31.4822 66.1291 30.9567C65.4278 30.1609 63.9431 29.6303 62.218 30.2376C58.8136 31.4368 58.3122 34.5747 58.2968 34.7125C58.2508 35.034 58.4146 35.3553 58.7013 35.5033C58.8139 35.5594 58.9317 35.5901 59.0546 35.59L59.0546 35.5849ZM63.6515 32.0028C62.7863 32.0029 61.9621 32.2224 61.2352 32.5235C61.6191 32.1918 62.1106 31.8907 62.7248 31.6764C63.7129 31.3294 64.3989 31.5895 64.6446 31.7222C64.8135 31.8089 64.9159 31.9007 64.9774 31.9721C64.8392 32.0181 64.5627 32.064 64.0661 32.0232C63.9279 32.0131 63.7897 32.008 63.6515 32.008L63.6515 32.0028Z" fill="black"/>
<path d="M81.499 57.804C77.5639 57.8043 74.3728 53.0347 74.3724 47.151C74.372 41.2672 77.5625 36.4973 81.4976 36.497C85.4334 36.4968 88.6246 41.2662 88.6249 47.15C88.6253 53.0338 85.4349 57.8037 81.499 57.804Z" fill="white"/>
<path d="M81.4991 58.5739C85.8506 58.5736 89.3928 53.4507 89.3924 47.1545C89.392 40.8584 85.8491 35.7359 81.4975 35.7362C77.1467 35.7365 73.6045 40.8594 73.6049 47.1556C73.6053 53.4518 77.1482 58.5741 81.4991 58.5739ZM81.4976 37.2618C85.0044 37.2616 87.8564 41.7004 87.8567 47.1496C87.8571 52.5987 85.0057 57.0378 81.499 57.0381C77.9929 57.0383 75.1409 52.5995 75.1406 47.1504C75.1402 41.7012 77.9916 37.2621 81.4976 37.2618Z" fill="black"/>
<path d="M80.0902 44.8236L82.2556 42.0121C81.4465 40.1396 80.1979 38.9356 78.8055 38.9357C76.3583 38.9358 74.377 42.6147 74.3773 47.1506C74.3776 51.6864 76.3594 55.3651 78.8066 55.3649C81.253 55.3647 83.2344 51.6859 83.2341 47.15C83.234 46.3387 83.1722 45.5581 83.0549 44.8234L80.0958 44.8236L80.0902 44.8236Z" fill="black"/>
<path d="M78.801 56.135C81.7144 56.1348 83.997 52.1906 83.9967 47.1547C83.9966 46.3282 83.9355 45.5067 83.8069 44.7057C83.7458 44.3332 83.4284 44.0577 83.0492 44.0577L81.6469 44.0578L82.8651 42.476C83.0343 42.2567 83.0701 41.9607 82.9627 41.7056C81.9893 39.4556 80.4738 38.1699 78.8054 38.17C75.892 38.1702 73.6094 42.1144 73.6097 47.1504C73.6101 52.1862 75.8932 56.1301 78.8066 56.1299L78.801 56.135ZM82.3738 45.5884C82.43 46.1038 82.4609 46.6242 82.4609 47.1498C82.4612 51.6091 80.5676 54.5991 78.8009 54.5992C77.0348 54.5993 75.1408 51.6044 75.1405 47.1503C75.1402 42.696 77.0339 39.7009 78.7999 39.7007C79.7268 39.7007 80.6636 40.5169 81.3603 41.9149L79.4764 44.359C79.2974 44.5886 79.2665 44.8999 79.3943 45.1651C79.5221 45.4254 79.7883 45.5937 80.0853 45.5937L82.3689 45.5936L82.3738 45.5884Z" fill="black"/>
<path d="M76.0098 34.8185C76.0098 34.8185 78.3796 32.5682 80.9602 32.7824C84.3799 33.0679 82.4339 29.8995 79.4292 30.9558C76.4239 32.0122 76.0098 34.8185 76.0098 34.8185Z" fill="black"/>
<path d="M76.0098 35.5839C76.2043 35.5839 76.3939 35.5125 76.5372 35.3747C76.573 35.339 78.7181 33.3592 80.8935 33.5478C82.5163 33.6804 83.151 33.1344 83.3968 32.6497C83.6685 32.1139 83.5505 31.4813 83.0842 30.9558C82.3833 30.1599 80.8981 29.6293 79.1736 30.2366C75.7687 31.4359 75.2725 34.5737 75.2521 34.7115C75.2058 35.033 75.3701 35.3544 75.6566 35.5024C75.769 35.5585 75.8869 35.5891 76.0098 35.5891L76.0098 35.5839ZM80.6118 32.0019C79.7467 32.0019 78.9223 32.2214 78.1956 32.5225C78.5797 32.1908 79.0712 31.8897 79.6856 31.6754C80.6736 31.3284 81.3596 31.5886 81.6054 31.7212C81.7739 31.8079 81.8765 31.8997 81.9376 31.9712C81.7999 32.0171 81.5233 32.063 81.0268 32.0223C80.8885 32.0121 80.7501 32.007 80.6118 32.007L80.6118 32.0019Z" fill="black"/>
<path d="M72.5048 62.3659C70.4726 62.3661 68.7319 62.1315 67.3753 61.8509C68.0307 64.4939 69.9099 70.3717 73.6829 70.1825C77.4151 69.9935 77.7728 64.3402 77.7368 61.738C76.3395 62.0799 74.558 62.3709 72.5048 62.3711L72.5048 62.3659Z" fill="white"/>
<path d="M73.4983 70.9478C73.5755 70.9477 73.6471 70.9477 73.7237 70.9428C76.8414 70.7839 78.5869 67.4268 78.5099 61.7226C78.5099 61.4878 78.3969 61.2685 78.2129 61.1256C78.0282 60.9828 77.788 60.9317 77.5577 60.9878C74.2764 61.7943 70.7436 61.7587 67.5339 61.0957C67.2779 61.0447 67.0065 61.1263 66.8274 61.3151C66.6431 61.5039 66.5715 61.7743 66.6329 62.0294C67.4625 65.3867 69.4543 70.948 73.4983 70.9478ZM76.9638 62.687C76.8923 65.2075 76.3603 69.274 73.647 69.412C73.6007 69.412 73.5599 69.412 73.5136 69.412C70.8108 69.4121 69.1672 65.2335 68.4401 62.81C71.21 63.2384 74.1585 63.2433 76.9638 62.6819L76.9638 62.687Z" fill="black"/>
<path d="M72.5048 63.1316C77.7215 63.1313 81.238 61.3504 81.3868 61.2738C81.7653 61.0799 81.9085 60.6156 81.714 60.2431C81.5194 59.8707 81.0539 59.7228 80.6803 59.9167C80.634 59.9422 77.3169 61.6006 72.5047 61.601C67.6925 61.6013 64.5082 60.2188 64.4775 60.2035C64.0884 60.03 63.6379 60.2035 63.4639 60.5862C63.2899 60.9689 63.464 61.423 63.8479 61.5964C63.9861 61.6576 67.3087 63.132 72.5048 63.1316Z" fill="black"/>
<path d="M80.8568 95.3819C80.8568 95.3819 76.4997 95.9025 74.0224 97.6582C71.074 99.7446 69.7432 106.704 74.6989 111.847C74.6989 111.847 74.6543 128.44 87.7855 128.428C98.6738 128.418 98.9902 114.443 92.7138 111.907L91.0751 105.065L87.7833 94.9987C87.7833 94.9987 83.8874 94.7596 80.8617 95.3819L80.8568 95.3819Z" fill="white"/>
<path d="M87.7701 129.193L87.7799 129.193C93.7598 129.193 96.6673 125.208 97.3939 121.489C98.2383 117.157 96.5177 112.891 93.3696 111.361L91.8229 104.886C91.8229 104.886 91.8124 104.846 91.8075 104.825L88.5149 94.7587C88.418 94.4575 88.1462 94.2532 87.8344 94.2329C87.6701 94.223 83.8312 93.9986 80.7388 94.6265C80.2936 94.6828 76.1057 95.249 73.5821 97.0349C72.0057 98.1522 70.9154 100.336 70.6747 102.877C70.3575 106.194 71.5451 109.561 73.9363 112.158C73.9828 113.786 74.4334 121.225 78.9642 125.745C81.2578 128.036 84.2225 129.193 87.775 129.193L87.7701 129.193ZM90.3329 105.269L91.9617 112.08C92.0179 112.32 92.1921 112.519 92.4224 112.611C95.0951 113.692 96.6156 117.458 95.8891 121.193C95.1008 125.239 92.0702 127.657 87.7798 127.658L87.7699 127.658C84.6417 127.658 82.0413 126.648 80.0498 124.663C75.5034 120.128 75.4622 111.928 75.4622 111.847C75.4621 111.648 75.3849 111.459 75.2466 111.316C73.0246 109.01 71.9136 105.989 72.1949 103.02C72.3893 100.948 73.2599 99.1323 74.4627 98.2798C76.7511 96.6625 80.9025 96.1468 80.9488 96.1419C80.9692 96.1419 80.9895 96.1363 81.0106 96.1313C83.2681 95.667 86.0734 95.6971 87.2152 95.7384L90.3329 105.269Z" fill="black"/>
<path d="M77.4944 112.735C77.4948 118.49 81.5448 125.883 88.722 125.694L77.4944 112.735Z" fill="white"/>
<path d="M88.456 126.464C88.5529 126.464 88.6449 126.464 88.7425 126.464C89.1673 126.454 89.5001 126.102 89.4896 125.678C89.4797 125.255 89.1363 124.913 88.7017 124.933C86.2643 125.005 84.0271 124.097 82.2097 122.337C79.8087 120.01 78.2622 116.245 78.262 112.745C78.2619 112.321 77.9192 111.98 77.4944 111.98C77.0696 111.98 76.7262 112.321 76.7262 112.745C76.7265 116.638 78.457 120.832 81.1403 123.434C83.188 125.424 85.7167 126.469 88.456 126.469L88.456 126.464Z" fill="black"/>
<path d="M74.7291 100.01C74.7291 100.01 71.8371 106.582 77.259 109.914L74.7291 100.01Z" fill="white"/>
<path d="M77.2591 110.673C77.5147 110.673 77.766 110.546 77.9142 110.311C78.1396 109.949 78.0265 109.479 77.6634 109.26C72.8869 106.327 75.328 100.561 75.4355 100.316C75.6047 99.9279 75.4256 99.4793 75.0365 99.3107C74.6475 99.1422 74.1967 99.3157 74.0282 99.7033C72.9379 102.189 72.1244 107.653 76.8595 110.566C76.9873 110.643 77.1256 110.679 77.264 110.679L77.2591 110.673Z" fill="black"/>
<path d="M91.1063 107.907C97.1675 105.422 95.2937 100.003 92.4671 96.3448C89.288 92.228 83.0988 92.8099 81.251 98.1263C79.3007 103.739 85.5008 110.203 91.1112 107.907L91.1063 107.907Z" fill="white"/>
<path d="M88.7153 109.143C89.6268 109.143 90.5333 108.969 91.3984 108.617C93.7324 107.657 95.1761 106.213 95.6878 104.315C96.3274 101.938 95.375 98.8606 93.0716 95.8765C91.356 93.6569 88.6784 92.5399 86.0733 92.9635C83.4829 93.3822 81.4558 95.1729 80.5185 97.8771C79.4851 100.857 80.4733 104.347 83.0435 106.765C84.6966 108.321 86.719 109.143 88.7153 109.143ZM90.8148 107.198C88.6029 108.101 86.089 107.525 84.0981 105.647C81.9682 103.643 81.1331 100.786 81.9728 98.377C82.7198 96.224 84.3067 94.8006 86.3241 94.4739C88.3717 94.1416 90.486 95.0396 91.8582 96.8105C92.8105 98.0399 94.9405 101.198 94.2083 103.917C93.8299 105.331 92.6882 106.433 90.8148 107.198Z" fill="black"/>
<path d="M17.3956 66.7724C17.3956 66.7724 9.46066 67.6454 9.37932 75.6356C9.2979 83.6259 20.8322 89.6605 25.9052 86.4764C29.8214 84.022 27.7068 78.8132 27.7068 78.8132" fill="white"/>
<path d="M22.5009 88.0996C23.9548 88.0995 25.2705 87.7778 26.3097 87.1246C29.8367 84.9153 29.2272 80.5322 28.4132 78.5275C28.2545 78.1343 27.809 77.9461 27.4148 78.1041C27.0207 78.2621 26.8313 78.7109 26.99 79.0992C27.0668 79.2874 28.8077 83.7518 25.4956 85.8291C23.4429 87.115 19.9309 86.7325 16.5572 84.8502C13.4292 83.1103 10.1065 79.7737 10.1472 75.6406C10.2184 68.4415 17.1858 67.5634 17.4826 67.5328C17.9024 67.4868 18.2044 67.1042 18.1583 66.6858C18.1122 66.2674 17.7282 65.9663 17.3136 66.0123C17.2266 66.0226 8.69782 67.0589 8.61139 75.6252C8.56044 80.4268 12.2979 84.2276 15.8047 86.1865C18.0727 87.4517 20.4327 88.0997 22.5009 88.0996Z" fill="black"/>
<path d="M13.7968 70.661C13.7968 70.661 13.7963 64.1401 20.9938 58.2669C20.9938 58.2669 22.77 54.6851 21.4592 51.9095C20.1485 49.1391 18.6992 40.8174 25.5745 43.0977C31.6156 45.1025 30.3415 56.4091 30.3415 56.4091C30.3415 56.4091 39.8072 56.1432 43.7335 52.7142C47.6598 49.2852 52.0467 43.948 55.6765 46.8816C58.9992 49.5652 59.2763 59.9073 43.5703 61.6891L37.843 81.2001L27.369 82.9156" fill="white"/>
<path d="M27.3741 83.6856C27.4151 83.6856 27.4561 83.6856 27.5021 83.675L37.9762 81.9603C38.268 81.9146 38.5034 81.7053 38.5905 81.4195L44.1744 62.3927C54.3004 61.1012 57.1515 56.4018 57.9448 53.6823C58.774 50.8454 58.0468 47.8045 56.1679 46.2893C52.615 43.4169 48.6631 47.1061 45.1821 50.3616C44.5064 50.9892 43.8716 51.5863 43.2369 52.1424C40.232 54.7651 33.5565 55.4391 31.1862 55.6026C31.355 52.7708 31.3953 44.2245 25.8254 42.3728C23.5421 41.6127 21.8271 41.8475 20.7317 43.0772C18.7506 45.2968 19.7799 50.1388 20.7732 52.2357C21.7768 54.3582 20.6661 57.1339 20.3794 57.787C13.1206 63.7877 13.0391 70.3798 13.0391 70.6607C13.0392 71.0842 13.3821 71.4254 13.807 71.4254C14.232 71.4253 14.5749 71.0841 14.5749 70.6606C14.5749 70.5988 14.6923 64.405 21.4904 58.8584C21.5774 58.787 21.6439 58.7002 21.69 58.6033C21.7719 58.4451 23.6146 54.654 22.1606 51.5826C21.3208 49.8019 20.481 45.659 21.8785 44.0925C22.5235 43.3679 23.6855 43.276 25.334 43.8269C30.7146 45.6124 29.5941 56.22 29.5839 56.3271C29.5583 56.5466 29.63 56.7659 29.7836 56.9292C29.932 57.0925 30.1522 57.1843 30.3723 57.1741C30.7716 57.1639 40.1604 56.8571 44.2506 53.2903C44.9058 52.7188 45.5815 52.0861 46.2368 51.479C50.0146 47.9479 52.8711 45.5905 55.2056 47.4782C56.3933 48.4373 57.2126 50.7333 56.4756 53.2539C55.7744 55.6519 53.1536 59.8359 43.4985 60.9335C43.1914 60.9693 42.9355 61.1836 42.8484 61.4795L37.2594 80.5264L27.2665 82.1597C26.8467 82.2264 26.5652 82.6246 26.6318 83.0375C26.6932 83.4153 27.0209 83.6807 27.3895 83.6807L27.3741 83.6856Z" fill="black"/>
<path d="M38.0104 60.5466C38.0104 60.5466 44.3941 59.2401 44.8809 65.6025C45.3728 71.9651 41.4463 73.1029 41.4463 73.1029" fill="white"/>
<path d="M41.4466 73.8687C41.5183 73.8687 41.59 73.8582 41.6617 73.8378C41.8459 73.7873 46.1819 72.4451 45.649 65.5416C45.4902 63.4548 44.7274 61.8884 43.3809 60.8783C41.0924 59.159 37.985 59.7663 37.8571 59.797C37.4424 59.8837 37.1762 60.2868 37.2581 60.7001C37.3401 61.1133 37.7497 61.3787 38.1643 61.297C38.1643 61.297 40.7342 60.8019 42.4646 62.108C43.4374 62.8426 43.9954 64.0365 44.1184 65.659C44.5488 71.2662 41.3646 72.3281 41.2264 72.3689C40.8219 72.496 40.5968 72.9194 40.7145 73.3225C40.817 73.6546 41.119 73.8688 41.4466 73.8687Z" fill="black"/>
<path d="M37.0278 65.5623C37.0278 65.5623 43.4115 64.2556 43.8983 70.6184C44.3902 76.9803 40.4637 78.1188 40.4637 78.1188" fill="white"/>
<path d="M40.4639 78.8846C40.5355 78.8846 40.6072 78.8741 40.6789 78.8537C40.8631 78.8025 45.1991 77.4603 44.6663 70.557C44.5074 68.4703 43.7445 66.9041 42.3981 65.8939C40.1096 64.1746 37.0023 64.782 36.8743 64.8126C36.4596 64.8993 36.1934 65.3024 36.2754 65.7157C36.3624 66.129 36.772 66.3942 37.1815 66.3126C37.2071 66.3075 39.7565 65.8175 41.4818 67.1236C42.4546 67.8582 43.0126 69.0521 43.1356 70.6744C43.566 76.2821 40.3767 77.3433 40.2436 77.3841C39.8392 77.5119 39.614 77.9353 39.7317 78.3384C39.8342 78.6698 40.1362 78.8847 40.4639 78.8846Z" fill="black"/>
<path d="M32.3651 80.3643C32.3651 80.3643 31.8585 85.298 38.0119 84.0323C38.0119 84.0323 44.37 82.8381 43.3201 75.1842C42.4545 68.8629 35.6561 70.2103 35.6561 70.2103" fill="white"/>
<path d="M36.1588 85.0011C36.7732 85.0011 37.4438 84.9245 38.1656 84.777C38.2219 84.7664 45.2148 83.3581 44.0778 75.0771C43.8064 73.0822 42.9616 71.5669 41.569 70.5818C39.04 68.7863 35.6459 69.4294 35.5026 69.46C35.0879 69.5417 34.8166 69.9448 34.8985 70.3582C34.9804 70.7711 35.3849 71.0414 35.7996 70.96C35.8252 70.955 38.7022 70.4191 40.6835 71.8325C41.7125 72.5669 42.3423 73.7304 42.5574 75.2865C43.4895 82.0977 38.099 83.2357 37.8686 83.2764C36.0564 83.6494 34.7458 83.4859 33.9727 82.7971C33.0051 81.9355 33.133 80.4504 33.133 80.4349C33.1739 80.0164 32.8617 79.6443 32.4419 79.6036C32.0221 79.5629 31.6484 79.869 31.6023 80.2876C31.5921 80.3788 31.3926 82.5423 32.9336 83.9305C33.7272 84.6446 34.8124 85.0068 36.1588 85.0067L36.1588 85.0011Z" fill="black"/>
<path d="M20.2582 80.5235C20.2582 80.5235 26.9651 88.9262 37.029 78.1194L20.2582 80.5235Z" fill="white"/>
<path d="M26.9647 84.4003C30.4561 84.4 34.0293 82.4659 37.5921 78.6394C37.8788 78.3283 37.8633 77.8431 37.5511 77.5573C37.2388 77.2723 36.7524 77.287 36.4657 77.5988C33.1077 81.2006 29.8212 82.9662 26.6882 82.8646C23.0739 82.737 20.8827 80.0688 20.8571 80.0435C20.5908 79.717 20.1096 79.6609 19.7769 79.9263C19.4441 80.1918 19.393 80.6714 19.6541 80.9979C19.7616 81.1306 22.2805 84.2271 26.6013 84.3905C26.719 84.3904 26.8419 84.3954 26.9596 84.3954L26.9647 84.4003Z" fill="black"/>
<path d="M77.615 76.8764C77.7687 76.8862 81.3675 77.1668 85.335 78.3147C91.4934 80.1049 95.4561 83.0489 97.1101 87.0794C99.0913 91.9111 97.4892 97.3245 92.3453 103.178C91.3932 104.259 90.057 104.815 88.7158 104.815C87.5894 104.815 86.4525 104.423 85.5417 103.622C83.5397 101.872 83.34 98.8359 85.0905 96.8408C87.9061 93.6365 88.5148 91.5397 88.1819 90.723C87.3679 88.7232 81.5472 86.8256 76.8832 86.4586" fill="#12B4FF"/>
<path d="M88.7207 105.576C90.3337 105.576 91.8637 104.881 92.924 103.678C98.2729 97.5901 99.9213 91.9063 97.8221 86.7889C96.0755 82.5336 91.9442 79.4365 85.5499 77.5803C81.5009 76.4065 77.8298 76.1217 77.6767 76.1111C77.2519 76.0859 76.8833 76.397 76.8524 76.8204C76.8215 77.2438 77.1389 77.6111 77.5588 77.6419C77.707 77.6518 81.2243 77.9219 85.1202 79.055C91.0434 80.7736 94.8425 83.5744 96.3988 87.376C98.2627 91.9163 96.7063 97.0649 91.7716 102.678C91.0042 103.555 89.8877 104.055 88.7206 104.055C87.7376 104.055 86.791 103.699 86.0487 103.055C85.2341 102.346 84.7481 101.362 84.6764 100.28C84.6047 99.2032 84.9579 98.1625 85.6741 97.3514C88.3001 94.3662 89.4726 91.8459 88.8988 90.4374C87.8545 87.8765 81.286 86.04 76.9499 85.6983C76.5307 85.6674 76.1564 85.9792 76.1262 86.4027C76.0905 86.8261 76.4079 87.1933 76.8327 87.2242C81.4862 87.5855 86.8617 89.4987 87.4762 91.0091C87.6195 91.3559 87.3787 93.0806 84.5175 96.3361C82.4848 98.6472 82.7209 102.173 85.0348 104.199C86.0538 105.091 87.3641 105.581 88.7158 105.581L88.7207 105.576Z" fill="black"/>
</g>
</g>
<defs>
<clipPath id="clip0_4453_774">
<rect width="169.23" height="131.311" fill="white" transform="translate(0 0.0111717)"/>
</clipPath>
</defs>
</svg>
