<svg width="195" height="119" viewBox="0 0 195 119" fill="none" xmlns="http://www.w3.org/2000/svg">
<g clip-path="url(#clip0_4453_775)">
<mask id="mask0_4453_775" style="mask-type:luminance" maskUnits="userSpaceOnUse" x="0" y="0" width="195" height="119">
<path d="M194.53 0H0V118.436H194.53V0Z" fill="white"/>
</mask>
<g mask="url(#mask0_4453_775)">
<path d="M194.348 24.6356C194.181 24.0074 193.803 23.0725 192.933 22.2094C193.134 21.1833 193.034 20.3155 192.861 19.6634C192.647 18.8483 192.102 17.6064 190.72 16.6282C190.854 15.7268 190.758 14.9597 190.6 14.3699C190.18 12.7877 188.684 10.093 183.339 9.81963C183.061 9.80527 182.775 9.80048 182.492 9.80048C176.173 9.80048 168.667 13.3247 166.44 14.4466L164.121 14.8302C162.089 10.7259 159.608 8.27093 156.725 7.51337C156.133 7.3599 155.526 7.2784 154.923 7.2784C153.179 7.2784 151.462 7.93532 149.951 9.17234C146.294 12.1787 146.978 17.6496 151.797 24.3047C150.114 25.1055 148.771 26.4912 147.91 28.294L137.952 32.336L142.594 22.9143C143.158 21.7635 143.043 20.4065 142.293 19.3709C141.652 18.4838 140.615 17.9564 139.52 17.9564C139.358 17.9564 139.19 17.966 139.023 17.9948L121.263 20.6032L118.251 2.85761C118.037 1.59179 117.148 0.560903 115.923 0.162935C115.584 0.0526547 115.23 -0.00488281 114.871 -0.00488281C113.973 -0.00488281 113.122 0.340343 112.477 0.973255L99.6361 13.5596L86.7953 0.973255C86.1503 0.340343 85.2992 -0.00488281 84.4002 -0.00488281C84.0418 -0.00488281 83.6933 0.0526547 83.3392 0.162935C82.1247 0.560903 81.2356 1.59179 81.0208 2.85761L78.0089 20.6032L60.2444 17.9948C60.0819 17.9708 59.9193 17.9612 59.752 17.9612C58.6572 17.9612 57.6199 18.4935 56.9793 19.3757C56.224 20.4114 56.1092 21.7731 56.6781 22.9238L63.7487 37.2747C61.731 36.5315 59.6373 35.7547 57.5434 34.9827C53.2457 33.4005 49.7559 32.1107 46.9114 31.0654C46.0892 28.9173 44.6168 27.2487 42.7141 26.3425C47.5282 19.6873 48.2165 14.2165 44.5594 11.2101C43.0488 9.96832 41.3325 9.31618 39.5877 9.31618C38.9853 9.31618 38.3782 9.39289 37.7854 9.55115C34.9027 10.3039 32.4216 12.7637 30.3899 16.868L28.0713 16.4844C25.8436 15.3624 18.3429 11.8383 12.0087 11.8383C11.7266 11.8383 11.4494 11.843 11.1721 11.8575C5.82743 12.1307 4.32634 14.8254 3.90565 16.4077C3.74789 16.9975 3.65707 17.7646 3.78614 18.6661C2.40934 19.6442 1.86436 20.8861 1.64923 21.7012C1.47713 22.3485 1.38153 23.2163 1.57753 24.2472C0.70747 25.1102 0.325024 26.0453 0.157705 26.6734C-0.626306 29.6413 1.21421 32.4655 3.46584 34.4074C1.95519 36.613 1.76875 39.2213 2.98779 41.4941C4.38849 44.1024 7.39546 45.7231 10.8375 45.7231C11.1816 45.7231 11.5306 45.7087 11.8748 45.6751C14.7192 45.4019 17.339 44.5292 19.1317 43.7908C20.6041 45.1285 22.8366 46.6485 25.9296 47.4252C26.9909 47.6938 28.0713 47.828 29.1517 47.828C30.2321 47.828 31.2886 47.6938 32.3308 47.43C32.6176 47.6026 32.9092 47.7513 33.2152 47.8807C34.1904 48.2979 35.2278 48.5089 36.3034 48.5089C38.0818 48.5089 39.8984 47.9239 41.5477 46.8355C43.3356 47.4924 45.2574 48.1972 47.27 48.9356C47.0358 49.4055 46.9067 49.9329 46.9067 50.4795C46.9067 51.7597 47.6094 52.9248 48.7424 53.5242L64.6281 61.8862L56.6781 78.0206C56.114 79.1718 56.2288 80.5286 56.9793 81.5644C57.6199 82.4512 58.6572 82.9832 59.7568 82.9832C59.9145 82.9832 60.0723 82.974 60.2492 82.9501L64.093 82.3843L60.2301 86.8192C59.2357 84.5658 57.529 82.264 54.6512 80.4807C52.3756 79.0662 50.0045 78.3519 47.6046 78.3519C46.376 78.3519 45.1522 78.5434 43.9714 78.9269C40.3287 80.1015 37.2308 83.0937 35.4477 87.15C34.9553 87.917 34.568 88.7657 34.3052 89.677C32.5603 95.6706 36.0978 103.462 42.5803 108.166C43.6702 111.191 47.2509 118.45 56.5012 118.45C56.769 118.45 57.0414 118.446 57.3187 118.431C57.3856 118.431 57.4526 118.422 57.5147 118.417C57.6629 118.436 57.8159 118.45 57.9641 118.45C58.3418 118.45 58.7146 118.388 59.0684 118.269C59.0971 118.259 59.207 118.22 59.3791 118.153C60.7607 117.837 61.8985 117.257 62.773 116.432C65.1491 114.912 66.8225 113.08 67.7406 110.98C68.4383 109.383 68.6058 107.657 68.2376 105.907C68.8353 105.121 69.2508 104.224 69.4613 103.246C69.5901 102.637 69.638 102.004 69.6098 101.343L79.6149 89.8544L81.011 98.0964C81.2263 99.3624 82.1155 100.393 83.3294 100.787C83.6736 100.897 84.0326 100.954 84.391 100.954C85.2894 100.954 86.1405 100.604 86.7861 99.9761L99.622 87.3899L112.462 99.9761C113.108 100.604 113.958 100.954 114.857 100.954C115.216 100.954 115.57 100.897 115.918 100.787C117.133 100.388 118.022 99.3575 118.237 98.0921L119.633 89.8495L129.639 101.338C129.61 101.995 129.658 102.633 129.787 103.241C129.998 104.22 130.409 105.121 131.011 105.903C130.642 107.653 130.81 109.379 131.508 110.975C132.426 113.076 134.099 114.907 136.475 116.427C137.35 117.257 138.488 117.832 139.869 118.148C140.041 118.216 140.146 118.249 140.18 118.264C140.538 118.383 140.911 118.446 141.284 118.446C141.432 118.446 141.585 118.436 141.734 118.412C141.801 118.417 141.863 118.422 141.93 118.426C142.202 118.441 142.47 118.446 142.747 118.446C151.997 118.446 155.578 111.181 156.668 108.161C163.15 103.462 166.688 95.6657 164.943 89.6721C164.675 88.7614 164.293 87.9127 163.8 87.1451C162.013 83.0888 158.92 80.1015 155.277 78.922C154.096 78.5434 152.877 78.347 151.649 78.347C149.249 78.347 146.877 79.0613 144.597 80.4758C141.719 82.2597 140.012 84.5609 139.018 86.8143L135.155 82.3794L139.018 82.9452C139.176 82.9642 139.334 82.9789 139.491 82.9789C140.586 82.9789 141.624 82.4512 142.264 81.5644C143.019 80.5286 143.134 79.1669 142.565 78.0163L134.615 61.8813L150.501 53.5146C151.634 52.9201 152.332 51.755 152.332 50.47C152.332 49.185 151.629 48.0246 150.496 47.4252L148.097 46.1642L152.394 44.4189C154.178 45.747 156.181 46.4663 158.174 46.4663C159.249 46.4663 160.291 46.2553 161.262 45.8382C161.564 45.7087 161.86 45.5601 162.142 45.3874C163.184 45.6512 164.245 45.7854 165.321 45.7854C166.397 45.7854 167.482 45.6512 168.543 45.3827C171.636 44.6059 173.869 43.086 175.341 41.7482C177.133 42.4866 179.753 43.364 182.598 43.6326C182.942 43.6661 183.291 43.6805 183.63 43.6805C187.072 43.6805 190.079 42.0599 191.48 39.4515C192.699 37.1788 192.513 34.5704 191.002 32.3648C193.254 30.4277 195.094 27.5987 194.31 24.6308L194.348 24.6356Z" fill="white"/>
<path d="M164.508 30.5377C163.5 28.0396 160.66 26.8313 158.169 27.843L120.675 43.0617C118.185 44.0734 116.98 46.9167 117.989 49.4196C118.753 51.3183 120.58 52.4691 122.502 52.4691C123.109 52.4691 123.725 52.354 124.327 52.1095L161.821 36.8908C164.312 35.8791 165.517 33.0358 164.508 30.5329V30.5377Z" fill="#FD2222"/>
<path d="M122.501 53.1936C120.216 53.1936 118.18 51.8175 117.324 49.6934C116.167 46.8309 117.554 43.5609 120.407 42.4006L157.901 27.1819C159.283 26.6209 160.803 26.6352 162.175 27.2154C163.547 27.8004 164.614 28.884 165.173 30.2697C166.329 33.1322 164.943 36.4022 162.089 37.5626L124.596 52.7813C123.926 53.0546 123.219 53.1936 122.501 53.1936ZM160 28.208C159.474 28.208 158.943 28.3086 158.441 28.5148L120.948 43.7335C118.825 44.5965 117.797 47.0275 118.658 49.1516C119.294 50.7339 120.804 51.7552 122.506 51.7552C123.042 51.7552 123.563 51.6545 124.06 51.4484L161.554 36.2297C163.676 35.3666 164.704 32.9356 163.843 30.8115C163.428 29.7807 162.639 28.9751 161.616 28.5388C161.095 28.3182 160.545 28.208 159.995 28.208H160Z" fill="black"/>
<path d="M159.949 42.6701C162.985 41.3666 163.983 36.8799 162.178 32.6488C160.372 28.4176 156.447 26.0442 153.41 27.3477C150.374 28.6511 149.376 33.1378 151.182 37.3689C152.987 41.6001 156.912 43.9735 159.949 42.6701Z" fill="white"/>
<path d="M158.207 43.7475C155.262 43.7475 152.107 41.3694 150.525 37.6581C148.565 33.0696 149.736 28.1501 153.131 26.6925C156.525 25.2349 160.88 27.7857 162.835 32.3743C164.795 36.9629 163.624 41.8824 160.229 43.34C159.584 43.6181 158.9 43.7523 158.207 43.7523V43.7475ZM151.844 37.0876C153.494 40.9474 157.003 43.1578 159.67 42.0119C162.338 40.8659 163.165 36.7951 161.52 32.9353C159.871 29.0755 156.367 26.8651 153.695 28.011C151.027 29.157 150.2 33.2278 151.844 37.0876Z" fill="black"/>
<path d="M178.783 16.959L159.058 24.1224L156.438 33.5298L165.359 38.8952L177.563 34.5703L182.134 28.8261L184.247 22.5066L178.783 16.959Z" fill="white"/>
<path d="M183.864 20.3878C187.54 18.0288 189.678 13.5888 183.162 13.2531C176.646 12.9175 167.525 17.7507 167.525 17.7507L162.061 18.6617C159.221 11.3976 155.463 9.10087 152.126 11.8387C148.464 14.845 155.607 23.6483 155.607 23.6483C153.876 27.5225 155.946 32.37 155.946 32.37" fill="white"/>
<path d="M155.946 33.0884C155.669 33.0884 155.401 32.9254 155.286 32.6521C155.2 32.4507 153.25 27.7901 154.78 23.7626C153.326 21.8974 147.881 14.3887 151.672 11.2769C153.049 10.1454 154.56 9.75218 156.042 10.1405C158.465 10.7734 160.698 13.4346 162.51 17.8506L167.295 17.0546C168.385 16.4888 176.861 12.2023 183.2 12.5332C186.647 12.7105 187.703 14.0099 187.985 15.0648C188.535 17.1505 186.508 19.5431 184.257 20.9912C183.922 21.2069 183.482 21.1062 183.267 20.7754C183.052 20.4397 183.152 19.9986 183.486 19.7829C185.533 18.4691 186.9 16.5608 186.604 15.4388C186.379 14.5997 185.15 14.0771 183.133 13.9716C176.88 13.6551 167.955 18.3348 167.864 18.3828C167.797 18.4212 167.72 18.4451 167.644 18.4547L162.18 19.3657C161.85 19.4233 161.52 19.2363 161.396 18.9198C159.742 14.6908 157.715 12.068 155.683 11.5358C154.646 11.2625 153.604 11.5502 152.585 12.3941C150.052 14.475 154.43 21.0535 156.166 23.1968C156.338 23.4078 156.376 23.6954 156.266 23.9448C154.689 27.4785 156.592 32.048 156.611 32.0911C156.763 32.4555 156.596 32.8774 156.233 33.0357C156.142 33.0741 156.047 33.0932 155.951 33.0932L155.946 33.0884Z" fill="black"/>
<path d="M171.76 22.1905C171.76 22.1905 178.907 18.2108 185.423 18.5465C191.938 18.8821 189.802 23.3221 186.125 25.6811" fill="white"/>
<path d="M186.126 26.3997C185.891 26.3997 185.657 26.2847 185.523 26.0689C185.308 25.7333 185.408 25.2874 185.743 25.0764C187.789 23.7626 189.157 21.8543 188.86 20.7323C188.64 19.8932 187.407 19.3706 185.389 19.2651C179.155 18.9486 172.18 22.7797 172.114 22.8181C171.765 23.0098 171.33 22.8852 171.138 22.5399C170.948 22.1947 171.072 21.7536 171.416 21.5618C171.717 21.394 178.831 17.4862 185.461 17.8267C188.908 18.0041 189.964 19.3034 190.247 20.3583C190.796 22.444 188.769 24.8367 186.517 26.2847C186.398 26.3614 186.264 26.3997 186.13 26.3997H186.126Z" fill="black"/>
<path d="M173.089 27.2341C173.089 27.2341 180.394 23.1825 186.91 23.5134C193.425 23.8442 191.289 28.289 187.612 30.648C183.936 33.007 175.24 34.2633 175.24 34.2633" fill="white"/>
<path d="M175.235 34.9824C174.887 34.9824 174.576 34.7235 174.528 34.3639C174.471 33.9707 174.743 33.6062 175.135 33.5487C175.221 33.5343 183.721 32.2877 187.225 30.0389C189.272 28.7252 190.639 26.8168 190.342 25.6949C190.122 24.8558 188.889 24.3331 186.871 24.2276C180.637 23.916 173.505 27.8189 173.433 27.8573C173.089 28.0491 172.649 27.9244 172.458 27.5744C172.267 27.2244 172.391 26.788 172.74 26.5963C173.046 26.4284 180.308 22.4488 186.943 22.7892C190.39 22.9666 191.446 24.266 191.729 25.3208C192.278 27.4066 190.252 29.7992 187.999 31.2472C184.237 33.6638 175.704 34.9152 175.341 34.968C175.307 34.9728 175.274 34.9776 175.235 34.9776V34.9824Z" fill="black"/>
<path d="M155.502 31.0752C153.762 35.4911 159.675 44.0786 167.744 42.0456C172.353 40.8853 174.543 37.5626 174.543 37.5626C174.543 37.5626 178.482 39.7825 182.956 40.2141C187.431 40.6456 190.476 37.1166 187.985 34.0144C185.495 30.9121 175.771 32.2115 175.771 32.2115" fill="white"/>
<path d="M165.359 43.0618C162.309 43.0618 159.374 41.7048 157.18 39.1971C154.851 36.536 153.909 33.1653 154.837 30.811C154.98 30.4419 155.401 30.2597 155.769 30.4083C156.138 30.5521 156.319 30.9741 156.171 31.3433C155.449 33.1797 156.304 36.023 158.255 38.2526C159.426 39.5951 162.687 42.5822 167.572 41.35C171.832 40.2808 173.931 37.1977 173.95 37.1641C174.155 36.8525 174.571 36.7518 174.896 36.934C174.935 36.9532 178.764 39.0868 183.028 39.4944C185.499 39.7293 187.24 38.6553 187.866 37.4854C188.382 36.5265 188.225 35.4524 187.426 34.4647C185.59 32.1776 178.458 32.5803 175.867 32.9256C175.475 32.9783 175.111 32.7002 175.063 32.307C175.011 31.9138 175.288 31.5494 175.68 31.4967C176.718 31.3577 185.877 30.2357 188.545 33.5584C189.711 35.0065 189.921 36.6895 189.128 38.1663C188.105 40.0746 185.595 41.187 182.889 40.9281C179.256 40.5828 176.01 39.1156 174.748 38.4827C173.897 39.5184 171.669 41.8007 167.917 42.7453C167.061 42.9611 166.205 43.0665 165.354 43.0665L165.359 43.0618Z" fill="black"/>
<path d="M169.112 28.0926C169.112 28.0926 165.135 24.6548 160.722 26.8028L169.112 28.0926Z" fill="white"/>
<path d="M169.111 28.8122C168.945 28.8122 168.782 28.7547 168.643 28.6396C168.495 28.5101 164.958 25.5422 161.033 27.4505C160.674 27.6232 160.248 27.4745 160.077 27.1197C159.904 26.76 160.053 26.3333 160.406 26.1607C165.187 23.8304 169.403 27.3978 169.58 27.5512C169.881 27.8101 169.915 28.2657 169.656 28.5677C169.513 28.7308 169.317 28.817 169.111 28.817V28.8122Z" fill="black"/>
<path d="M78.2862 46.318C78.2862 46.318 67.3717 42.2664 56.3815 38.21C33.6118 29.8095 33.564 29.8095 32.3832 29.8047H32.3545C29.6774 29.8047 27.5022 31.9719 27.4879 34.6618C27.4735 36.9729 29.0655 38.9148 31.2119 39.4326C33.846 40.2765 58.6379 49.4298 74.9111 55.4712C75.4702 55.6774 76.039 55.7781 76.5987 55.7781C78.5777 55.7781 80.4371 54.5602 81.1637 52.5895C82.0958 50.0627 80.8102 47.2529 78.2905 46.318H78.2862Z" fill="#FD2222"/>
<path d="M76.5938 56.4967C75.9341 56.4967 75.2793 56.3768 74.6577 56.1467C58.595 50.182 33.7648 41.0143 31.016 40.1225C28.5014 39.5039 26.7565 37.2552 26.7708 34.6516C26.7852 31.5782 29.2902 29.0801 32.3545 29.0801C33.2597 29.0865 41.3515 31.9026 56.6302 37.5285C67.611 41.5801 78.5201 45.6317 78.5348 45.6365C79.9352 46.1544 81.0489 47.19 81.6706 48.5517C82.2922 49.9087 82.3493 51.4334 81.8332 52.8335C81.025 55.0199 78.922 56.4919 76.5938 56.4919V56.4967ZM32.3785 30.5233C30.079 30.5233 28.2194 32.3789 28.205 34.6612C28.1954 36.6031 29.5006 38.2765 31.3793 38.732C31.3984 38.732 31.4128 38.7416 31.4271 38.7464C34.0803 39.5951 59.03 48.8106 75.1548 54.7993C75.6187 54.972 76.1059 55.0582 76.5938 55.0582C78.3243 55.0582 79.8873 53.9651 80.485 52.3396C80.8673 51.2992 80.8243 50.1676 80.3653 49.1559C79.9069 48.1441 79.0748 47.377 78.0377 46.9886C78.0377 46.9886 67.1232 42.937 56.133 38.8806C34.3289 30.8397 33.4397 30.5281 32.3785 30.5185V30.5233Z" fill="black"/>
<path d="M43.3449 39.4119C45.1503 35.1807 44.1524 30.6941 41.1159 29.3906C38.0794 28.0872 34.1542 30.4606 32.3487 34.6918C30.5432 38.9229 31.5412 43.4096 34.5777 44.713C37.6142 46.0165 41.5394 43.6431 43.3449 39.4119Z" fill="white"/>
<path d="M36.3223 45.7807C35.6292 45.7807 34.9455 45.6464 34.3002 45.3683C30.906 43.9107 29.7396 38.9913 31.6948 34.4026C33.6548 29.814 38.0099 27.2632 41.3993 28.7208C44.7935 30.1784 45.9599 35.0978 44.0047 39.6865C42.4176 43.4024 39.2672 45.7807 36.3223 45.7807ZM39.3389 29.7421C36.9725 29.7421 34.3623 31.799 33.0094 34.9684C31.3602 38.8282 32.192 42.899 34.8595 44.0449C37.5271 45.1909 41.036 42.9805 42.6853 39.1207C44.3346 35.2609 43.5028 31.1901 40.8352 30.0442C40.3572 29.838 39.8552 29.7421 39.3389 29.7421Z" fill="black"/>
<path d="M15.7472 18.9922L35.4716 26.1556L38.0914 35.5678L29.1709 40.9284L16.971 36.6083L12.396 30.8593L10.283 24.5398L15.7472 18.9922Z" fill="white"/>
<path d="M10.6653 22.4201C6.98907 20.061 4.85218 15.621 11.3681 15.2854C17.8839 14.9497 27.0052 19.7829 27.0052 19.7829L32.4694 20.694C35.309 13.4298 39.0665 11.1331 42.4034 13.8709C46.0652 16.8773 38.9231 25.6805 38.9231 25.6805C40.6537 29.5547 38.5837 34.4022 38.5837 34.4022" fill="white"/>
<path d="M38.5885 35.1271C38.4929 35.1271 38.3973 35.1079 38.3064 35.0696C37.9431 34.9161 37.771 34.4894 37.9287 34.125C37.9479 34.0771 39.8505 29.5076 38.2729 25.9786C38.163 25.7293 38.2013 25.4416 38.3733 25.2306C40.233 22.934 44.502 16.5185 41.954 14.428C40.9309 13.5889 39.8888 13.3012 38.8562 13.5697C36.8245 14.1019 34.7975 16.7247 33.1434 20.9537C33.0192 21.2701 32.6893 21.4572 32.3594 21.3996L26.8953 20.4886C26.8187 20.4742 26.7471 20.4502 26.6753 20.4167C26.5845 20.3687 17.664 15.689 11.4063 16.0055C9.39364 16.111 8.16031 16.6288 7.93559 17.4727C7.63919 18.5946 9.00642 20.503 11.0525 21.8168C11.3872 22.0325 11.4828 22.4736 11.2724 22.8093C11.0573 23.1449 10.6127 23.2408 10.2828 23.025C8.03119 21.577 5.99948 19.1844 6.55399 17.0987C6.83131 16.0391 7.89257 14.7444 11.3394 14.567C17.6783 14.241 26.1543 18.5227 27.2443 19.0885L32.0296 19.8844C33.8414 15.4733 36.0739 12.8121 38.4977 12.1744C39.9844 11.786 41.4902 12.1744 42.867 13.3108C46.6533 16.4226 41.2082 23.9313 39.7597 25.7964C41.2894 29.8241 39.339 34.4846 39.253 34.686C39.1382 34.9593 38.8705 35.1223 38.5933 35.1223L38.5885 35.1271Z" fill="black"/>
<path d="M22.7745 24.2227C22.7745 24.2227 15.6276 20.243 9.11172 20.5787C2.59583 20.9143 4.73274 25.3543 8.40895 27.7133" fill="white"/>
<path d="M8.40909 28.4335C8.27519 28.4335 8.14135 28.3951 8.02187 28.3184C5.7702 26.8704 3.73847 24.4778 4.29302 22.3921C4.57029 21.3324 5.63157 20.0378 9.07834 19.8604C15.7089 19.5152 22.8224 23.4278 23.1236 23.5955C23.4678 23.7874 23.5968 24.2237 23.4008 24.5737C23.2096 24.9189 22.7746 25.0484 22.4256 24.8518C22.3539 24.8135 15.3743 20.9776 9.15002 21.2988C7.13746 21.4043 5.90406 21.9221 5.67937 22.766C5.38298 23.8881 6.75024 25.7964 8.79631 27.1101C9.13093 27.3259 9.22654 27.767 9.01618 28.1027C8.87755 28.3184 8.64811 28.4335 8.41387 28.4335H8.40909Z" fill="black"/>
<path d="M21.4455 29.2673C21.4455 29.2673 14.1408 25.2157 7.62492 25.5466C1.10901 25.8822 3.24591 30.3222 6.92216 32.6812C10.5984 35.0402 19.2942 36.2965 19.2942 36.2965" fill="white"/>
<path d="M19.2942 37.0201C19.2608 37.0201 19.2273 37.0201 19.189 37.0105C18.8257 36.9578 10.2924 35.7063 6.53015 33.2898C4.2785 31.8417 2.24678 29.4492 2.80132 27.3634C3.07859 26.3038 4.13987 25.0091 7.58662 24.8317C14.2173 24.4866 21.4837 28.471 21.7896 28.6388C22.1338 28.8306 22.2629 29.267 22.0717 29.617C21.8805 29.967 21.4454 30.0917 21.0965 29.8998C21.0248 29.8615 13.8874 25.9442 7.65836 26.2702C5.64574 26.3757 4.41236 26.8935 4.18768 27.7374C3.89128 28.8594 5.25852 30.7677 7.30459 32.0815C10.804 34.3303 19.3086 35.5769 19.3946 35.5913C19.7866 35.6488 20.0591 36.0132 20.0017 36.4064C19.9492 36.766 19.6432 37.0249 19.2942 37.0249V37.0201Z" fill="black"/>
<path d="M39.0282 33.1084C40.7683 37.5244 34.8548 46.1119 26.7852 44.0789C22.1768 42.9185 19.9873 39.5958 19.9873 39.5958C19.9873 39.5958 16.0481 41.8157 11.5735 42.2473C7.09892 42.6788 4.05373 39.1498 6.54442 36.0476C9.03508 32.9453 18.7587 34.2448 18.7587 34.2448" fill="white"/>
<path d="M29.1708 45.0996C28.3198 45.0996 27.4642 44.9941 26.6084 44.7784C22.8605 43.8338 20.628 41.5515 19.777 40.5158C18.515 41.1488 15.269 42.616 11.6357 42.9611C8.9252 43.2201 6.42018 42.1077 5.39714 40.1994C4.60358 38.7225 4.8187 37.0396 5.98037 35.5916C8.65267 32.2687 17.8122 33.3908 18.8496 33.5298C19.2416 33.5825 19.5189 33.9421 19.4663 34.3402C19.4137 34.7333 19.0504 35.0066 18.6632 34.9587C16.0721 34.6134 8.93956 34.2155 7.1038 36.4978C6.30543 37.4903 6.1525 38.5643 6.66399 39.5185C7.29023 40.6885 9.03038 41.7673 11.5019 41.5275C15.7661 41.12 19.5954 38.9863 19.6336 38.9671C19.9587 38.7849 20.3746 38.8808 20.585 39.1973C20.6041 39.226 22.7027 42.3091 26.9622 43.3783C31.8527 44.6106 35.1035 41.6186 36.2795 40.2809C38.2299 38.0513 39.0904 35.208 38.3686 33.3716C38.2252 33.0024 38.402 32.5852 38.7701 32.4366C39.1382 32.2927 39.5542 32.4702 39.7024 32.8393C40.6298 35.1936 39.688 38.5643 37.3599 41.2255C35.1656 43.7331 32.2304 45.0901 29.1804 45.0901L29.1708 45.0996Z" fill="black"/>
<path d="M25.418 30.1258C25.418 30.1258 29.3954 26.688 33.8079 28.836L25.418 30.1258Z" fill="white"/>
<path d="M25.418 30.8445C25.2172 30.8445 25.0164 30.7582 24.873 30.5952C24.6148 30.2931 24.6483 29.8424 24.9495 29.5834C25.1264 29.43 29.3381 25.8627 34.1234 28.1929C34.4819 28.3656 34.6301 28.7971 34.4532 29.1519C34.2811 29.5115 33.8508 29.6602 33.4971 29.4828C29.5675 27.5696 26.0347 30.5424 25.8865 30.6719C25.7526 30.7869 25.5853 30.8445 25.418 30.8445Z" fill="black"/>
<path d="M148.938 50.4696L130.088 60.3901L139.52 79.536L118.452 76.4431L114.881 97.4972L99.6453 82.5662L84.41 97.4972L80.8385 76.4431L59.7662 79.536L69.198 60.3901L50.3533 50.4696L69.198 40.5444L59.7662 21.3988L80.8385 24.4963L84.41 3.4375L99.6453 18.3685L114.881 3.4375L118.452 24.4963L139.52 21.3988L130.088 40.5444L148.938 50.4696Z" fill="#FFE100"/>
<path d="M114.881 98.2163C114.695 98.2163 114.518 98.1439 114.379 98.0101L99.6453 83.5682L84.912 98.0101C84.7205 98.1966 84.4432 98.2641 84.1903 98.1776C83.9369 98.096 83.7503 97.8806 83.7074 97.6118L80.2507 77.2482L59.8714 80.2404C59.6085 80.279 59.3455 80.1686 59.1878 79.9526C59.03 79.7372 59.0061 79.4494 59.1256 79.2094L68.2469 60.6968L50.0187 51.0976C49.7844 50.973 49.6362 50.7284 49.6362 50.4599C49.6362 50.1914 49.7844 49.9469 50.0187 49.8222L68.2469 40.223L59.1256 21.7103C59.0061 21.4706 59.03 21.1829 59.1878 20.9671C59.3455 20.7514 59.6085 20.6411 59.8714 20.6795L80.2507 23.6714L83.7025 3.30791C83.7454 3.0442 83.932 2.82843 84.1854 2.74212C84.4389 2.66061 84.7156 2.72295 84.9071 2.90994L99.6411 17.3519L114.374 2.90994C114.566 2.72295 114.843 2.66061 115.096 2.74212C115.35 2.82364 115.536 3.0394 115.579 3.30791L119.031 23.6714L139.41 20.6795C139.673 20.6411 139.936 20.7514 140.093 20.9671C140.252 21.1829 140.275 21.4706 140.156 21.7103L131.035 40.223L149.263 49.8222C149.497 49.9469 149.645 50.1914 149.645 50.4599C149.645 50.7284 149.497 50.973 149.263 51.0976L131.035 60.6968L140.156 79.2094C140.275 79.4494 140.252 79.7372 140.093 79.9526C139.936 80.1686 139.673 80.279 139.41 80.2404L119.031 77.2482L115.579 97.6118C115.536 97.8757 115.35 98.0917 115.096 98.1776C115.024 98.2016 114.948 98.2114 114.876 98.2114L114.881 98.2163ZM99.6453 81.8469C99.827 81.8469 100.009 81.9138 100.147 82.0531L114.403 96.0298L117.745 76.3277C117.812 75.9441 118.17 75.6803 118.557 75.7379L138.277 78.6344L129.452 60.7208C129.28 60.3707 129.419 59.9489 129.763 59.7667L147.403 50.4791L129.763 41.1916C129.419 41.0094 129.28 40.5874 129.452 40.2374L138.277 22.3241L118.557 25.2201C118.17 25.2729 117.812 25.014 117.745 24.6304L114.403 4.92855L100.147 18.9054C99.87 19.1787 99.4257 19.1787 99.1434 18.9054L84.8881 4.92855L81.5467 24.6304C81.4792 25.014 81.1208 25.2777 80.7336 25.2201L61.014 22.3241L69.8387 40.2374C70.0111 40.5874 69.8724 41.0094 69.5282 41.1916L51.8879 50.4791L69.5282 59.7667C69.8724 59.9489 70.0111 60.3707 69.8387 60.7208L61.014 78.6344L80.7336 75.7379C81.1159 75.6803 81.4792 75.9441 81.5467 76.3277L84.8881 96.0298L99.1434 82.0531C99.2821 81.9187 99.4637 81.8469 99.6453 81.8469Z" fill="black"/>
<path d="M99.6453 80.3603C116.105 80.3603 129.448 66.9783 129.448 50.4698C129.448 33.9617 116.105 20.5791 99.6453 20.5791C83.1863 20.5791 69.8435 33.9617 69.8435 50.4698C69.8435 66.9783 83.1863 80.3603 99.6453 80.3603Z" fill="#FD2222"/>
<path d="M99.6461 81.08C82.8183 81.08 69.127 67.3482 69.127 50.4703C69.127 33.5926 82.8183 19.8604 99.6461 19.8604C116.473 19.8604 130.165 33.5926 130.165 50.4703C130.165 67.3482 116.473 81.08 99.6461 81.08ZM99.6461 21.294C83.6069 21.294 70.5611 34.379 70.5611 50.4655C70.5611 66.5523 83.6069 79.6373 99.6461 79.6373C115.685 79.6373 128.73 66.5523 128.73 50.4655C128.73 34.379 115.685 21.294 99.6461 21.294Z" fill="black"/>
<path d="M90.7823 50.7434C90.8492 50.7434 90.9118 50.7434 90.9787 50.7434C93.0964 50.7434 95.0804 51.29 96.787 52.2442C97.7093 50.403 98.2549 48.1111 98.2549 45.6274C98.2549 39.5572 94.9988 34.6377 90.9787 34.6377C89.5495 34.6377 88.2203 35.261 87.0967 36.335C89.4777 39.164 90.9787 43.2923 90.9787 47.8905C90.9787 48.8686 90.9118 49.8228 90.7823 50.7482V50.7434Z" fill="white"/>
<path d="M96.787 52.9581C96.6673 52.9581 96.5483 52.9293 96.4378 52.867C94.784 51.9464 92.9007 51.4573 90.9787 51.4573H90.7922C90.5915 51.4573 90.381 51.3758 90.2423 51.2176C90.1036 51.0593 90.0417 50.8484 90.0705 50.6422C90.1945 49.736 90.2614 48.8106 90.2614 47.8852C90.2614 43.637 88.9089 39.595 86.5469 36.7948C86.3033 36.5023 86.3272 36.0708 86.5996 35.8119C87.8951 34.57 89.4108 33.918 90.9787 33.918C95.3866 33.918 98.9716 39.1683 98.9716 45.6268C98.9716 48.1489 98.4365 50.5463 97.4277 52.5649C97.3418 52.7423 97.184 52.8718 96.9975 52.9293C96.9306 52.9485 96.8588 52.9629 96.787 52.9629V52.9581ZM91.5905 50.0333C93.283 50.1148 94.9417 50.5319 96.4526 51.2559C97.1644 49.5825 97.5375 47.6503 97.5375 45.622C97.5375 39.9594 94.5975 35.3516 90.9787 35.3516C89.9748 35.3516 88.9899 35.7208 88.0865 36.4208C90.3859 39.4416 91.6955 43.5747 91.6955 47.8852C91.6955 48.6044 91.6574 49.3236 91.5905 50.0333Z" fill="black"/>
<path d="M83.7024 45.6224C83.7024 48.1061 84.2473 50.398 85.1703 52.2393C86.8241 51.3186 88.7363 50.7768 90.7779 50.7433C90.9068 49.8179 90.9737 48.8637 90.9737 47.8856C90.9737 43.2874 89.4727 39.159 87.0917 36.3301C85.0555 38.2768 83.6975 41.7098 83.6975 45.6224H83.7024Z" fill="black"/>
<path d="M85.1702 52.9589C85.0984 52.9589 85.0266 52.9493 84.9597 52.9253C84.7732 52.8677 84.6155 52.7335 84.5296 52.5609C83.5207 50.5423 82.9856 48.1401 82.9856 45.6228C82.9856 41.6432 84.3381 37.9752 86.5994 35.8127C86.743 35.6736 86.9388 35.6017 87.1352 35.6161C87.3309 35.6257 87.5175 35.7168 87.6414 35.8702C90.2182 38.9293 91.6959 43.3069 91.6959 47.8908C91.6959 48.8833 91.6284 49.8758 91.4903 50.8492C91.4424 51.1992 91.146 51.4629 90.792 51.4677C88.9326 51.4965 87.1112 51.9855 85.5194 52.8725C85.4089 52.9349 85.2899 52.9637 85.1702 52.9637V52.9589ZM87.0486 37.4285C85.3948 39.3752 84.4197 42.3672 84.4197 45.6228C84.4197 47.651 84.7922 49.5833 85.5047 51.2567C86.9486 50.5663 88.5263 50.1539 90.1421 50.0484C90.2182 49.334 90.2568 48.61 90.2568 47.886C90.2568 43.9494 89.0952 40.1856 87.0443 37.4285H87.0486Z" fill="black"/>
<path d="M82.3021 55.2219C82.1297 55.2219 81.9529 55.1595 81.8192 55.0349C81.5277 54.7664 81.508 54.3108 81.7762 54.0184C84.0995 51.4772 87.455 50.0195 90.9836 50.0195C93.1492 50.0195 95.281 50.571 97.1404 51.6114C97.4847 51.8032 97.6092 52.2444 97.4178 52.5895C97.2269 52.9348 96.7869 53.0594 96.4427 52.8676C94.7932 51.947 92.9049 51.4579 90.9836 51.4579C87.857 51.4579 84.8881 52.7478 82.8323 54.9918C82.6893 55.1452 82.4979 55.2267 82.3021 55.2267V55.2219Z" fill="black"/>
<path d="M107.6 50.7434C107.668 50.7434 107.73 50.7434 107.797 50.7434C109.914 50.7434 111.898 51.29 113.605 52.2442C114.527 50.403 115.073 48.1111 115.073 45.6274C115.073 39.5572 111.817 34.6377 107.797 34.6377C106.367 34.6377 105.038 35.261 103.915 36.335C106.296 39.164 107.797 43.2923 107.797 47.8905C107.797 48.8686 107.73 49.8228 107.6 50.7482V50.7434Z" fill="white"/>
<path d="M113.605 52.9581C113.485 52.9581 113.366 52.9293 113.256 52.867C111.602 51.9464 109.719 51.4573 107.797 51.4573H107.61C107.39 51.4573 107.199 51.3758 107.06 51.2176C106.922 51.0593 106.86 50.8484 106.888 50.6422C107.012 49.736 107.079 48.8106 107.079 47.8852C107.079 43.637 105.727 39.595 103.365 36.7948C103.121 36.5023 103.145 36.0708 103.418 35.8119C104.713 34.57 106.229 33.918 107.797 33.918C112.205 33.918 115.79 39.1683 115.79 45.6268C115.79 48.1489 115.254 50.5463 114.246 52.5649C114.16 52.7423 114.002 52.8718 113.815 52.9293C113.748 52.9485 113.677 52.9629 113.605 52.9629V52.9581ZM108.408 50.0333C110.101 50.1148 111.76 50.5319 113.27 51.2559C113.983 49.5825 114.355 47.6503 114.355 45.622C114.355 39.9594 111.415 35.3516 107.797 35.3516C106.793 35.3516 105.808 35.7208 104.904 36.4208C107.204 39.4416 108.513 43.5747 108.513 47.8852C108.513 48.6044 108.475 49.3236 108.408 50.0333Z" fill="black"/>
<path d="M100.525 45.6224C100.525 48.1061 101.07 50.398 101.993 52.2393C103.647 51.3186 105.559 50.7768 107.601 50.7433C107.73 49.8179 107.797 48.8637 107.797 47.8856C107.797 43.2874 106.296 39.159 103.915 36.3301C101.879 38.2768 100.521 41.7098 100.521 45.6224H100.525Z" fill="black"/>
<path d="M101.993 52.9589C101.921 52.9589 101.85 52.9493 101.783 52.9253C101.596 52.8677 101.438 52.7335 101.353 52.5609C100.344 50.5423 99.8086 48.1449 99.8086 45.6228C99.8086 41.6432 101.161 37.9752 103.422 35.8127C103.566 35.6736 103.757 35.6017 103.958 35.6161C104.154 35.6257 104.34 35.7168 104.464 35.8702C107.041 38.9293 108.518 43.3069 108.518 47.8908C108.518 48.8833 108.451 49.8758 108.313 50.8492C108.265 51.1992 107.968 51.4629 107.615 51.4677C105.756 51.4965 103.934 51.9855 102.342 52.8725C102.232 52.9349 102.112 52.9637 101.993 52.9637V52.9589ZM103.867 37.4285C102.213 39.3752 101.238 42.3672 101.238 45.6228C101.238 47.651 101.61 49.5833 102.323 51.2567C103.767 50.5663 105.344 50.1539 106.96 50.0484C107.036 49.334 107.075 48.61 107.075 47.886C107.075 43.9494 105.913 40.1856 103.862 37.4285H103.867Z" fill="black"/>
<path d="M115.943 54.6753C115.766 54.6753 115.589 54.6082 115.45 54.4787C113.409 52.532 110.694 51.4579 107.802 51.4579C107.405 51.4579 107.084 51.1367 107.084 50.7387C107.084 50.3408 107.405 50.0195 107.802 50.0195C111.062 50.0195 114.131 51.2326 116.44 53.4334C116.727 53.7068 116.736 54.1622 116.464 54.4499C116.325 54.5986 116.134 54.6753 115.943 54.6753Z" fill="black"/>
<path d="M88.77 74.1174L65.2257 101.155C64.2647 102.258 62.9122 102.824 61.5591 102.824C60.4213 102.824 59.2835 102.426 58.3609 101.62C56.334 99.8463 56.1284 96.7633 57.8972 94.7302L81.4416 67.6924" fill="#FD2222"/>
<path d="M61.5591 103.544C60.211 103.544 58.9059 103.055 57.8876 102.163C55.5691 100.13 55.3301 96.5865 57.357 94.2614L80.9011 67.2236C81.1594 66.9259 81.6135 66.8922 81.9148 67.1561C82.2161 67.4199 82.2444 67.8704 81.9817 68.1729L58.4374 95.2107C56.9315 96.9412 57.1084 99.5738 58.8342 101.084C59.5895 101.746 60.56 102.11 61.564 102.11C62.7637 102.11 63.9015 101.592 64.6906 100.686L88.2343 73.6486C88.4926 73.3509 88.9467 73.3172 89.2481 73.5811C89.5444 73.84 89.5776 74.2954 89.3149 74.5979L65.7707 101.636C64.7097 102.853 63.1749 103.553 61.564 103.553L61.5591 103.544Z" fill="black"/>
<path d="M55.4688 95.6323C55.4688 95.6323 57.7252 90.1425 61.2628 93.2924C64.8006 96.443 69.3803 103.371 63.0983 105.351" fill="white"/>
<path d="M63.0939 106.07C62.7876 106.07 62.5054 105.874 62.4102 105.567C62.2906 105.188 62.5011 104.785 62.8785 104.665C64.3604 104.195 65.1969 103.442 65.4264 102.359C65.9382 99.9568 63.4185 96.1736 60.7847 93.8288C60.0484 93.1722 59.3791 92.9279 58.729 93.0764C57.4335 93.3735 56.4104 95.2193 56.1284 95.9054C55.9754 96.2693 55.5595 96.4473 55.1914 96.2939C54.828 96.1404 54.6512 95.7232 54.8042 95.3537C54.8568 95.2242 56.1236 92.2038 58.4039 91.6712C59.5226 91.4122 60.6412 91.7718 61.7358 92.75C63.8296 94.6155 67.592 99.0842 66.8274 102.656C66.588 103.764 65.7897 105.25 63.3086 106.036C63.2368 106.061 63.1657 106.07 63.0939 106.07Z" fill="black"/>
<path d="M57.9785 95.5409C57.9785 95.5409 59.6852 87.6197 52.8633 83.391C46.9498 79.7226 41.0267 82.6473 38.4644 88.8231L57.9785 112.639V114.993C57.9785 114.993 63.0026 113.267 64.619 109.575C66.2348 105.883 62.3767 102.287 62.3767 102.287" fill="white"/>
<path d="M57.9786 115.718C57.8304 115.718 57.687 115.67 57.5627 115.584C57.3762 115.449 57.2615 115.229 57.2615 114.999V112.898L37.9099 89.2791C37.7425 89.0729 37.6995 88.79 37.7999 88.5458C39.2532 85.0362 41.8108 82.4662 44.813 81.4973C47.5522 80.6154 50.4636 81.056 53.2363 82.7774C60.4023 87.2221 58.6909 95.6084 58.6766 95.69C58.5953 96.0784 58.2081 96.3227 57.8256 96.2417C57.4384 96.16 57.1946 95.7765 57.2758 95.3881C57.338 95.0861 58.7769 87.9033 52.4857 84.0004C50.0811 82.5092 47.5809 82.1158 45.2528 82.8688C42.7621 83.6745 40.6061 85.7886 39.2915 88.7041L58.5284 112.184C58.6335 112.313 58.6909 112.472 58.6909 112.64V113.92C60.1537 113.249 62.8976 111.71 63.9593 109.293C65.3455 106.123 61.9176 102.848 61.8845 102.82C61.5973 102.546 61.5783 102.096 61.8507 101.803C62.1183 101.515 62.5724 101.496 62.8645 101.765C63.0363 101.928 67.076 105.759 65.2737 109.873C63.5524 113.805 58.428 115.608 58.2081 115.679C58.1316 115.703 58.0551 115.718 57.9738 115.718H57.9786Z" fill="black"/>
<path d="M56.4535 102.561C56.4535 102.561 54.8376 86.2686 44.3395 86.2686C33.8415 86.2686 35.8158 99.7703 45.506 105.98C45.506 105.98 47.5712 115.43 57.1705 114.98C66.7697 114.529 56.4535 102.561 56.4535 102.561Z" fill="white"/>
<path d="M56.5156 115.718C47.9728 115.718 45.3435 108.056 44.8846 106.435C38.928 102.494 35.4382 95.5128 36.9202 90.4256C37.8333 87.2849 40.4721 85.5537 44.3444 85.5537C54.7947 85.5537 56.8981 100.164 57.1466 102.264C58.2366 103.558 63.2228 109.777 61.688 113.368C61.0715 114.807 59.5656 115.594 57.2088 115.703C56.9746 115.713 56.7451 115.718 56.5156 115.718ZM44.3396 86.9921C41.1175 86.9921 39.0236 88.3207 38.2922 90.8281C37.1496 94.75 39.7311 101.43 45.8885 105.376C46.051 105.476 46.161 105.639 46.204 105.827C46.2805 106.176 48.1736 114.275 56.5108 114.275C56.7164 114.275 56.922 114.275 57.1323 114.26C58.8916 114.179 59.9768 113.685 60.3592 112.793C61.4395 110.271 57.51 104.886 55.9037 103.026C55.8081 102.916 55.746 102.777 55.7316 102.628C55.7173 102.47 54.0585 86.9878 44.33 86.9878L44.3396 86.9921Z" fill="black"/>
<path d="M110.522 74.1174L134.065 101.155C135.026 102.258 136.379 102.824 137.733 102.824C138.87 102.824 140.008 102.426 140.93 101.62C142.957 99.8463 143.163 96.7633 141.394 94.7302L117.85 67.6924" fill="#FD2222"/>
<path d="M137.732 103.543C136.116 103.543 134.587 102.844 133.526 101.626L109.981 74.5878C109.723 74.2908 109.752 73.8348 110.048 73.5716C110.345 73.3126 110.799 73.3414 111.062 73.6385L134.606 100.676C135.395 101.583 136.533 102.101 137.732 102.101C138.736 102.101 139.702 101.736 140.462 101.075C141.299 100.341 141.796 99.3287 141.873 98.2217C141.949 97.114 141.585 96.0395 140.859 95.2006L117.315 68.1628C117.057 67.8658 117.085 67.4098 117.381 67.1466C117.678 66.8827 118.133 66.9158 118.395 67.2134L141.939 94.2513C142.919 95.378 143.407 96.8213 143.307 98.3125C143.206 99.8037 142.532 101.17 141.409 102.153C140.391 103.045 139.085 103.534 137.737 103.534L137.732 103.543Z" fill="black"/>
<path d="M143.823 95.6323C143.823 95.6323 141.566 90.1425 138.029 93.2924C134.491 96.443 129.912 103.371 136.193 105.351" fill="white"/>
<path d="M136.198 106.071C136.126 106.071 136.054 106.061 135.983 106.037C133.502 105.256 132.698 103.769 132.465 102.657C131.704 99.0846 135.462 94.616 137.555 92.7504C138.65 91.7772 139.769 91.4127 140.888 91.6716C143.168 92.1994 144.435 95.2247 144.487 95.3542C144.64 95.7236 144.463 96.1403 144.095 96.2937C143.732 96.4477 143.312 96.2698 143.158 95.9059C142.876 95.2198 141.854 93.3739 140.558 93.0769C139.908 92.9278 139.238 93.1726 138.502 93.8293C135.868 96.174 133.349 99.9573 133.86 102.359C134.089 103.443 134.927 104.201 136.409 104.666C136.786 104.786 136.996 105.188 136.877 105.567C136.781 105.874 136.499 106.071 136.193 106.071H136.198Z" fill="black"/>
<path d="M141.308 95.5409C141.308 95.5409 139.601 87.6197 146.423 83.391C152.337 79.7226 158.26 82.6473 160.822 88.8231L141.308 112.639V114.993C141.308 114.993 136.284 113.267 134.668 109.575C133.052 105.883 136.91 102.287 136.91 102.287" fill="white"/>
<path d="M141.308 115.718C141.232 115.718 141.15 115.703 141.074 115.679C140.859 115.603 135.729 113.805 134.008 109.873C132.211 105.764 136.246 101.928 136.418 101.765C136.709 101.496 137.159 101.511 137.431 101.803C137.699 102.096 137.685 102.551 137.393 102.82C137.36 102.853 133.927 106.123 135.318 109.293C136.38 111.714 139.123 113.249 140.586 113.92V112.64C140.586 112.472 140.644 112.313 140.749 112.184L159.986 88.7041C158.671 85.7886 156.52 83.6696 154.025 82.8688C151.701 82.1158 149.196 82.5092 146.792 84.0004C140.476 87.9174 141.982 95.3113 142.001 95.3881C142.083 95.7765 141.839 96.16 141.451 96.2417C141.064 96.3227 140.682 96.0784 140.601 95.69C140.581 95.6034 138.87 87.2221 146.041 82.7774C148.814 81.056 151.73 80.6154 154.464 81.4973C157.466 82.4662 160.024 85.0362 161.477 88.5458C161.578 88.79 161.54 89.0729 161.367 89.2791L142.015 112.898V114.999C142.015 115.229 141.906 115.449 141.715 115.584C141.59 115.67 141.447 115.718 141.299 115.718H141.308Z" fill="black"/>
<path d="M142.838 102.561C142.838 102.561 144.454 86.2686 154.952 86.2686C165.45 86.2686 163.476 99.7703 153.785 105.98C153.785 105.98 151.72 115.43 142.121 114.98C132.521 114.529 142.838 102.561 142.838 102.561Z" fill="white"/>
<path d="M142.776 115.718C142.551 115.718 142.322 115.713 142.083 115.703C139.726 115.594 138.22 114.807 137.603 113.368C136.069 109.782 141.055 103.563 142.145 102.264C142.394 100.164 144.497 85.5537 154.947 85.5537C158.819 85.5537 161.454 87.2849 162.367 90.4256C163.848 95.5128 160.359 102.499 154.402 106.435C153.943 108.056 151.314 115.718 142.771 115.718H142.776ZM154.952 86.9921C145.229 86.9921 143.565 102.48 143.55 102.633C143.536 102.782 143.474 102.921 143.379 103.031C141.772 104.891 137.847 110.281 138.923 112.798C139.305 113.69 140.391 114.179 142.15 114.265C151.003 114.687 153.001 106.19 153.083 105.827C153.126 105.639 153.236 105.476 153.398 105.376C159.561 101.43 162.137 94.75 160.995 90.8281C160.263 88.3207 158.174 86.9921 154.947 86.9921H154.952Z" fill="black"/>
<path d="M108.934 62.8451C110.048 61.0374 110.698 58.8941 110.698 56.5879H88.2632C88.2632 58.8894 88.9131 61.0374 90.0268 62.8451C92.0347 61.0135 95.5154 59.7956 99.4784 59.7956C103.441 59.7956 106.921 61.0087 108.929 62.8451H108.934Z" fill="black"/>
<path d="M108.934 63.565C108.758 63.565 108.585 63.4975 108.451 63.3778C106.491 61.5847 103.135 60.5154 99.4834 60.5154C95.8309 60.5154 92.4748 61.5847 90.5148 63.3778C90.357 63.5214 90.1417 63.5889 89.9318 63.5601C89.7213 63.5313 89.5347 63.4067 89.42 63.2244C88.1964 61.2394 87.5508 58.9475 87.5508 56.5933C87.5508 56.1953 87.8711 55.874 88.2682 55.874H110.703C111.1 55.874 111.42 56.1953 111.42 56.5933C111.42 58.9475 110.775 61.2442 109.551 63.2244C109.441 63.4067 109.25 63.5264 109.039 63.5601C109.006 63.5601 108.972 63.565 108.939 63.565H108.934ZM99.4834 59.0817C103.097 59.0817 106.477 60.0695 108.734 61.7523C109.446 60.3812 109.862 58.8708 109.962 57.3125H89.0088C89.1095 58.8708 89.5255 60.3812 90.2374 61.7523C92.4938 60.0695 95.8738 59.0817 99.4877 59.0817H99.4834Z" fill="black"/>
<path d="M99.4827 68.2205C103.456 68.2205 106.945 66.077 108.934 62.8504C106.926 61.0186 103.446 59.8008 99.4827 59.8008C95.5197 59.8008 92.0396 61.0139 90.0317 62.8504C92.0255 66.077 95.5105 68.2205 99.4827 68.2205Z" fill="white"/>
<path d="M99.4826 68.9393C95.3907 68.9393 91.6284 66.8056 89.4198 63.2286C89.2382 62.9359 89.291 62.5523 89.5487 62.3173C91.7671 60.2941 95.4816 59.0811 99.4826 59.0811C103.484 59.0811 107.199 60.2894 109.417 62.3173C109.67 62.5523 109.728 62.9316 109.546 63.2286C107.337 66.8056 103.575 68.9393 99.4826 68.9393ZM90.9785 62.9837C92.9527 65.8225 96.0885 67.496 99.4826 67.496C102.877 67.496 106.008 65.8176 107.987 62.9837C105.984 61.4306 102.863 60.5147 99.4826 60.5147C96.1032 60.5147 92.9815 61.4306 90.9785 62.9837Z" fill="black"/>
<path d="M100.032 71.7829C96.8009 71.7829 94.4009 70.3972 94.2481 70.3064C93.9087 70.1045 93.794 69.6639 93.9946 69.3233C94.1953 68.9828 94.6353 68.8674 94.9747 69.0693C95.171 69.184 99.8937 71.8835 104.78 69.0693C105.124 68.8723 105.559 68.9877 105.76 69.3325C105.955 69.678 105.841 70.1143 105.497 70.3156C103.584 71.4184 101.696 71.7878 100.032 71.7878V71.7829Z" fill="black"/>
</g>
</g>
<defs>
<clipPath id="clip0_4453_775">
<rect width="194.53" height="118.436" fill="white"/>
</clipPath>
</defs>
</svg>
